<svg xmlns="http://www.w3.org/2000/svg" version="1.1" xmlns:xlink="http://www.w3.org/1999/xlink" xmlns:svgjs="http://svgjs.dev/svgjs" width="512" height="512"><svg width="512" height="512" viewBox="0 0 512 512" fill="none" xmlns="http://www.w3.org/2000/svg">
<g clip-path="url(#clip0_572_4849)">
<path d="M0 256C0 114.615 114.615 0 256 0C397.385 0 512 114.615 512 256C512 397.385 397.385 512 256 512C114.615 512 0 397.385 0 256Z" fill="#0394CD"></path>
<g clip-path="url(#clip1_572_4849)">
<path d="M83 254.165C83.1031 252.994 83.213 251.823 83.2955 250.652C84.1269 239.267 87.6796 228.797 93.8091 219.227C101.224 207.649 111.27 198.98 123.261 192.536C133.451 187.055 144.336 183.791 155.812 182.502C174.771 180.375 192.932 183.264 210.221 191.379C216.976 194.545 223.222 198.557 228.596 203.837C229.517 204.745 230.376 205.715 231.317 206.713C226.445 212.118 221.608 217.474 216.763 222.844C215.217 221.639 213.76 220.426 212.235 219.31C201.618 211.57 189.819 206.651 176.894 204.537C170.008 203.408 163.089 203.643 156.21 204.662C146.934 206.034 138.275 209.138 130.394 214.28C121.138 220.315 114.053 228.249 109.827 238.602C107.058 245.378 106.26 252.488 106.652 259.757C106.996 266.138 108.239 272.326 110.913 278.147C114.719 286.441 120.492 293.052 128.009 298.152C136.303 303.778 145.442 307.194 155.296 308.691C166.573 310.403 177.76 309.779 188.802 306.973C195.007 305.393 200.917 303.002 206.243 299.357C211.011 296.094 215.052 292.123 217.677 286.857C219.079 284.03 219.821 280.558 219.574 277.932H167.157V255.71H243.507C243.638 256.625 243.81 257.567 243.899 258.516C245.095 270.587 243.988 282.353 238.931 293.502C233.66 305.116 225.291 313.867 214.282 320.11C206.023 324.795 197.193 327.857 187.895 329.611C179.354 331.225 170.737 331.835 162.065 331.551C148.198 331.093 134.929 328.114 122.512 321.697C107.91 314.158 96.7776 303.155 89.6517 288.187C86.7657 282.138 84.9241 275.742 84.0239 269.097C83.5772 265.785 83.426 262.431 83.1306 259.098C83.1168 258.946 83.0412 258.793 83 258.641C83 257.158 83 255.661 83 254.165Z" fill="white"></path>
<path d="M428.999 259.979C428.896 260.963 428.786 261.94 428.697 262.924C427.412 277.787 421.997 290.967 412.638 302.469C401.32 316.369 386.643 324.858 369.436 329.092C360.139 331.378 350.677 331.94 341.132 331.461C321.994 330.498 304.884 324.2 290.261 311.616C277.398 300.55 269.289 286.594 266.389 269.749C263.888 255.239 265.159 241.083 270.966 227.46C277.459 212.216 288.069 200.678 302.321 192.509C312.615 186.612 323.657 182.967 335.442 181.685C348.972 180.209 362.31 181.062 375.353 185.192C387.419 189.016 398.029 195.308 407.106 204.24C417.757 214.717 424.567 227.294 427.591 241.942C428.264 245.206 428.443 248.574 428.855 251.893C428.889 252.156 428.951 252.419 428.999 252.683V259.993V259.979ZM347.069 202.93C344.932 203.048 342.788 203.124 340.658 203.291C330.343 204.122 320.785 207.324 311.969 212.735C302.08 218.805 294.982 227.266 291.051 238.284C287.767 247.506 287.306 257 289.011 266.597C290.804 276.706 295.36 285.423 302.644 292.581C309.88 299.698 318.504 304.5 328.241 307.181C339.07 310.161 350.058 310.424 361.053 308.304C373.49 305.899 384.299 300.224 392.861 290.759C405.395 276.9 408.769 260.582 404.289 242.649C401.066 229.761 393.136 220.08 382.169 212.964C371.518 206.049 359.713 202.972 347.076 202.93H347.069Z" fill="white"></path>
</g>
</g>
<defs>
<clipPath id="SvgjsClipPath1004">
<rect width="512" height="512" fill="white"></rect>
</clipPath>
<clipPath id="SvgjsClipPath1003">
<rect width="346" height="151" fill="white" transform="translate(83 181)"></rect>
</clipPath>
</defs>
</svg><style>@media (prefers-color-scheme: light) { :root { filter: none; } }
@media (prefers-color-scheme: dark) { :root { filter: none; } }
</style></svg>