<svg xmlns="http://www.w3.org/2000/svg" version="1.1" xmlns:xlink="http://www.w3.org/1999/xlink" xmlns:svgjs="http://svgjs.dev/svgjs" width="100" height="62"><svg width="100" height="62" viewBox="0 0 100 62" fill="none" xmlns="http://www.w3.org/2000/svg">
<g clip-path="url(#clip0_204_2761)">
<path d="M0 21.1132C0.0297903 20.7753 0.0615666 20.4374 0.0853988 20.0995C0.325707 16.8142 1.35248 13.7929 3.12401 11.0315C5.26692 7.69027 8.17048 5.18884 11.6361 3.32926C14.5813 1.74762 17.7272 0.805829 21.0439 0.433913C26.5233 -0.179948 31.7723 0.653863 36.7691 2.99533C38.7214 3.90913 40.5267 5.06687 42.0798 6.59052C42.3459 6.85246 42.5941 7.1324 42.8662 7.42034C41.4581 8.97998 40.06 10.5256 38.6598 12.0753C38.213 11.7274 37.7919 11.3774 37.3511 11.0555C34.2826 8.82202 30.8727 7.40234 27.137 6.79248C25.147 6.46655 23.147 6.53454 21.159 6.82847C18.4779 7.22438 15.9755 8.12018 13.6976 9.60384C11.0224 11.3454 8.97482 13.6349 7.75342 16.6223C6.95305 18.5778 6.72267 20.6294 6.83588 22.7269C6.93518 24.5685 7.29465 26.3541 8.06721 28.0337C9.16746 30.4271 10.8357 32.3347 13.0084 33.8064C15.4055 35.43 18.0469 36.4158 20.8949 36.8477C24.154 37.3416 27.3872 37.1616 30.5787 36.3518C32.3721 35.8959 34.0801 35.2061 35.6192 34.1543C36.9975 33.2125 38.1653 32.0668 38.924 30.5471C39.3291 29.7313 39.5436 28.7295 39.4721 27.9717H24.3228V21.5591H46.3894C46.4272 21.8231 46.4768 22.095 46.5026 22.369C46.8482 25.8522 46.5284 29.2474 45.0667 32.4647C43.5435 35.8159 41.1245 38.3414 37.9429 40.1429C35.5557 41.4946 33.0037 42.3784 30.3166 42.8843C27.8479 43.3502 25.3575 43.5262 22.8511 43.4442C18.8433 43.3122 15.0083 42.4524 11.4196 40.6008C7.19932 38.4253 3.98197 35.2501 1.92247 30.931C1.08834 29.1854 0.556085 27.3398 0.295917 25.4223C0.166826 24.4665 0.123133 23.4987 0.0377343 22.5369C0.0337623 22.4929 0.0119161 22.4489 0 22.405C0 21.977 0 21.5451 0 21.1132Z" fill="black"></path>
<path d="M100 22.7908C99.9702 23.0748 99.9384 23.3567 99.9126 23.6406C99.5412 27.9297 97.9762 31.7328 95.2713 35.0521C92.0003 39.0632 87.7581 41.5126 82.7852 42.7343C80.0981 43.3942 77.3633 43.5561 74.6047 43.4182C69.0737 43.1402 64.1285 41.3227 59.9023 37.6915C56.1844 34.4982 53.8409 30.4711 53.0028 25.6102C52.2799 21.4231 52.6473 17.3381 54.3255 13.407C56.2023 9.00795 59.2687 5.6787 63.3877 3.32123C66.3628 1.61962 69.5543 0.567856 72.9603 0.197939C76.8708 -0.227964 80.7257 0.0179801 84.4951 1.20971C87.9826 2.31346 91.049 4.12905 93.6725 6.70647C96.7508 9.72979 98.719 13.359 99.5928 17.586C99.7875 18.5278 99.8391 19.4996 99.9583 20.4574C99.9682 20.5333 99.9861 20.6093 100 20.6853V22.7948V22.7908ZM76.3207 6.32856C75.703 6.36255 75.0834 6.38454 74.4677 6.43253C71.4867 6.67248 68.7241 7.59627 66.1761 9.15792C63.3182 10.9095 61.2666 13.351 60.1306 16.5303C59.1813 19.1916 59.0483 21.931 59.5408 24.7004C60.0591 27.6177 61.3759 30.1332 63.4811 32.1987C65.5723 34.2523 68.0648 35.6379 70.879 36.4118C74.0089 37.2716 77.1846 37.3475 80.3622 36.7357C83.9569 36.0418 87.0809 34.4042 89.5555 31.6728C93.178 27.6737 94.1531 22.9648 92.8582 17.79C91.9268 14.0708 89.6349 11.2774 86.4652 9.2239C83.3869 7.22835 79.9749 6.34055 76.3227 6.32856H76.3207Z" fill="black"></path>
<path d="M2.80029 61.8201V50.9145H3.06642C4.67112 50.9145 6.27384 50.9085 7.87854 50.9145C9.28067 50.9205 10.5875 51.2485 11.6917 52.1642C12.8754 53.144 13.4712 54.4377 13.5506 55.9574C13.6579 58.0249 13.0104 59.7645 11.227 60.9463C10.2856 61.5701 9.22109 61.8181 8.10693 61.8281C6.39101 61.8421 4.67708 61.8321 2.96116 61.8321C2.9135 61.8321 2.86782 61.8241 2.80029 61.8201ZM4.49437 52.4942V60.2044C4.689 60.2044 4.86972 60.2064 5.05244 60.2044C6.24206 60.1864 7.43963 60.2384 8.62131 60.1325C10.0373 60.0045 11.0621 59.2466 11.5566 57.863C11.7632 57.2851 11.8089 56.6832 11.7831 56.0714C11.7076 54.3058 10.6272 52.9221 8.89141 52.6901C7.45155 52.4982 5.97991 52.5522 4.49635 52.4962L4.49437 52.4942Z" fill="black"></path>
<path d="M37.2339 57.9869H33.2598V56.3313C33.3413 56.3273 33.4108 56.3193 33.4803 56.3193C35.228 56.3193 36.9757 56.3193 38.7234 56.3193C38.8386 56.3193 38.9637 56.2873 38.9816 56.4733C39.1424 58.1009 38.771 59.5406 37.4881 60.6383C36.7076 61.3062 35.7781 61.6741 34.7791 61.848C33.1645 62.13 31.5856 62.048 30.0743 61.3382C26.5252 59.6705 26.134 55.2855 28.269 52.9501C29.3037 51.8183 30.5847 51.1505 32.0861 50.9205C33.8378 50.6526 35.504 50.9265 37.0353 51.8523C37.3987 52.0723 37.7165 52.3642 38.0839 52.6441C37.6847 53.088 37.3252 53.4859 36.9538 53.8958C36.4037 53.434 35.8119 53.084 35.1585 52.8461C33.4406 52.2182 31.7942 52.3422 30.2868 53.416C28.1875 54.9116 28.412 57.629 29.689 58.9487C30.402 59.6845 31.2798 60.1024 32.2768 60.2624C33.5121 60.4604 34.7136 60.3484 35.8476 59.7725C36.3024 59.5406 36.6956 59.2266 36.9439 58.7727C37.067 58.5488 37.1226 58.2889 37.2299 57.9889L37.2339 57.9869Z" fill="black"></path>
<path d="M87.085 53.46C87.4802 56.2314 87.359 59.0167 87.3769 61.8161H85.7146V50.9166C86.227 50.9166 86.7334 50.9126 87.2399 50.9226C87.3034 50.9226 87.3749 50.9965 87.4246 51.0525C89.6668 53.546 91.909 56.0414 94.1492 58.5348C94.4511 58.8688 94.753 59.2027 95.0965 59.5806C94.7887 56.6693 94.8602 53.8099 94.8503 50.9346H96.5265V61.8321C95.9982 61.8321 95.4838 61.8361 94.9675 61.8261C94.9019 61.8261 94.8265 61.7601 94.7768 61.7061C92.2943 59.0107 89.8157 56.3153 87.3352 53.618C87.2816 53.56 87.224 53.504 87.1684 53.448C87.1406 53.452 87.1128 53.456 87.085 53.46Z" fill="black"></path>
<path d="M43.0907 57.0451V60.1964H49.5889V61.818H41.3906V50.9344H49.5909V52.5401H43.0926V55.4174H48.7449V57.0451H43.0887H43.0907Z" fill="black"></path>
<path d="M51.696 59.9444C52.125 59.4025 52.4805 58.9546 52.8638 58.4707C53.1617 58.7807 53.4298 59.0866 53.7258 59.3605C55.2034 60.7322 57.5111 60.6962 58.7405 60.0344C59.1575 59.8104 59.509 59.5245 59.5964 59.0126C59.664 58.6127 59.5448 58.2888 59.2389 58.0308C58.804 57.6629 58.2678 57.529 57.7335 57.415C56.9034 57.237 56.0653 57.1051 55.2351 56.9311C54.6493 56.8091 54.0971 56.5832 53.5907 56.2592C51.9284 55.1995 51.843 52.91 53.4219 51.7283C54.26 51.1004 55.2232 50.8405 56.248 50.7805C57.4813 50.7085 58.6749 50.8505 59.7712 51.4743C60.3015 51.7763 60.7642 52.1602 61.1157 52.6901C60.7364 53.092 60.361 53.4899 59.9956 53.8778C59.7354 53.6278 59.511 53.3659 59.2429 53.1639C57.8904 52.1482 56.4228 52.0082 54.8876 52.6761C54.2759 52.942 54.0395 53.3939 54.0991 53.9638C54.1428 54.3817 54.3851 54.6636 54.7247 54.8736C55.2629 55.2075 55.8707 55.3255 56.4784 55.4494C57.378 55.6334 58.2837 55.8053 59.1734 56.0353C59.7831 56.1933 60.3511 56.4812 60.796 56.9511C61.4891 57.6809 61.5209 58.5567 61.2607 59.4605C60.9449 60.5563 60.1466 61.1961 59.1337 61.594C58.097 62.002 57.0126 62.0519 55.9203 61.96C54.5281 61.844 53.2769 61.3761 52.2462 60.3923C52.0794 60.2323 51.8887 60.0984 51.702 59.9444H51.696Z" fill="black"></path>
<path d="M72.0587 61.834C72.2752 61.3502 72.4778 60.8943 72.6823 60.4384C74.0745 57.3351 75.4667 54.2318 76.8569 51.1285C76.9225 50.9805 76.994 50.9085 77.1707 50.9125C77.6633 50.9265 78.1558 50.9205 78.6463 50.9145C78.7814 50.9145 78.8588 50.9485 78.9184 51.0825C80.4914 54.6197 82.0683 58.1549 83.6432 61.6921C83.6591 61.7281 83.671 61.7641 83.6968 61.836C83.099 61.836 82.5231 61.84 81.9491 61.828C81.8935 61.828 81.82 61.7301 81.7882 61.6601C81.4506 60.9223 81.115 60.1804 80.7893 59.4366C80.7237 59.2846 80.6463 59.2246 80.4755 59.2246C78.7218 59.2326 76.9662 59.2326 75.2125 59.2246C75.0298 59.2246 74.9504 59.2946 74.8828 59.4506C74.5591 60.1864 74.2195 60.9163 73.8978 61.6541C73.8362 61.7941 73.7647 61.842 73.6158 61.84C73.1093 61.832 72.6029 61.836 72.0627 61.836L72.0587 61.834ZM75.7468 57.579H79.9293C79.2223 55.9614 78.5252 54.3617 77.84 52.7901C77.1469 54.3737 76.4478 55.9714 75.7468 57.579Z" fill="black"></path>
<path d="M26.0824 61.834C25.4905 61.834 24.9205 61.84 24.3525 61.826C24.291 61.826 24.2076 61.72 24.1738 61.644C23.8342 60.9062 23.4986 60.1664 23.1748 59.4205C23.1093 59.2726 23.0338 59.2246 22.8749 59.2246C21.1114 59.2306 19.3498 59.2306 17.5862 59.2246C17.4273 59.2246 17.3518 59.2726 17.2883 59.4205C16.9665 60.1584 16.6249 60.8862 16.3032 61.624C16.2317 61.788 16.1423 61.844 15.9656 61.838C15.475 61.824 14.9845 61.834 14.4542 61.834C14.6548 61.3821 14.8395 60.9622 15.0282 60.5443C16.4343 57.411 17.8424 54.2797 19.2425 51.1464C19.318 50.9764 19.3994 50.9045 19.5921 50.9125C20.0766 50.9285 20.5612 50.9225 21.0458 50.9145C21.1848 50.9125 21.2544 50.9565 21.3139 51.0884C22.8809 54.6116 24.4518 58.1328 26.0208 61.654C26.0426 61.702 26.0565 61.756 26.0843 61.836L26.0824 61.834ZM22.3288 57.585C21.6158 55.9493 20.9167 54.3477 20.2355 52.788C19.5484 54.3597 18.8453 55.9693 18.1383 57.585H22.3268H22.3288Z" fill="black"></path>
<path d="M68.172 61.826H66.4859V52.5541H62.782V50.9385H71.9693V52.5441H68.172V61.828V61.826Z" fill="black"></path>
</g>
<defs>
<clipPath id="SvgjsClipPath1001">
<rect width="100" height="62" fill="white"></rect>
</clipPath>
</defs>
</svg><style>@media (prefers-color-scheme: light) { :root { filter: none; } }
@media (prefers-color-scheme: dark) { :root { filter: none; } }
</style></svg>