<svg width="2042" height="501" fill="none" xmlns="http://www.w3.org/2000/svg"><path d="M690.436 46.042c55.839 0 89.992 41.484 100.088 62.227-2.677-1.395-5.533-3.025-8.593-4.772-15.005-8.564-34.902-19.922-62.522-19.922-16.881 0-24.853 5.685-32.703 11.283-7.613 5.429-15.112 10.776-30.511 10.776-31.277 0-35.557-59.592 34.241-59.592z" fill="url(#paint0_linear_204_2882)"/><path d="M973.674 108.269c10.097-20.743 44.246-62.227 100.086-62.227 69.8 0 65.52 59.592 34.24 59.592-15.4 0-22.89-5.347-30.51-10.776-7.85-5.598-15.82-11.283-32.7-11.283-27.62 0-47.518 11.358-62.522 19.922-3.06 1.747-5.917 3.377-8.594 4.772z" fill="url(#paint1_linear_204_2882)"/><path d="M882.099 0c-15.248 12.902-40.652 47.705-50.882 74.765-12.788 33.825-7.403 70.759 5.385 92.209 12.787 21.45 26.41 72.037 26.41 91.837 0 7.936-7.458 8.348-7.458 0 0-20.213-9.075-61.05-24.337-87.862-15.263-26.812-61.472-71.07-107.259-71.07s-53.625 77.549-21.45 77.549c28.928 0 28.214-23.244 27.776-37.528-.049-1.603-.095-3.094-.095-4.426 0-13.2 69.711 4.538 69.711 35.475 0 14.721-10.741 29.816-22.001 45.64-12.403 17.431-25.436 35.746-25.436 55.421 0 37.538 71.587 58.162 129.636 58.162 58.049 0 129.641-20.624 129.641-58.162 0-19.675-13.037-37.99-25.44-55.421-11.261-15.824-22.002-30.919-22.002-45.64 0-30.937 69.712-48.675 69.712-35.475 0 1.331-.05 2.82-.1 4.422v.003c-.43 14.285-1.15 37.529 27.78 37.529 32.17 0 24.34-77.549-21.45-77.549-45.786 0-91.996 44.258-107.258 71.07-15.263 26.812-24.338 67.649-24.338 87.862 0 8.348-7.458 7.936-7.458 0 0-19.8 13.623-70.387 26.41-91.837 12.788-21.45 18.173-58.384 5.386-92.21-10.23-27.06-35.635-61.862-50.883-74.764z" fill="url(#paint2_linear_204_2882)"/><path d="M876.256 363.129l-62.511-.001c-1.298 0-2.568.075-3.812.218-18.66 2.152-31.403 19.812-41.642 34.002l-1.332 1.844c-6.589 9.101-12.162 16.346-17.686 16.346-.794 0-1.573-.027-2.338-.078-11.478-.767-19.731-6.98-23.282-9.654-.647-.487-1.137-.857-1.463-1.055.958 8.309 4.601 37.869 40.265 37.869 35.663 0 57.042-38.667 59.679-54.885 12.665 30.147 22.173 50.331 59.964 50.331s47.3-20.184 59.965-50.331c2.637 16.218 24.016 54.885 59.677 54.885 35.67 0 39.31-29.56 40.27-37.869-.33.198-.82.568-1.47 1.055-3.78 2.852-12.92 9.732-25.62 9.732-5.89 0-11.84-8.243-19.014-18.19-10.922-15.136-24.692-34.22-45.454-34.22-34.406 0-68.354.002-68.354.002l-5.842-.001z" fill="url(#paint3_linear_204_2882)"/><path d="M1098.79 208.769c41.09 0 66.22 30.529 73.65 45.793-1.97-1.026-4.07-2.226-6.32-3.511-11.04-6.303-25.69-14.661-46.01-14.661-12.42 0-18.29 4.184-24.07 8.303-5.6 3.995-11.12 7.93-22.45 7.93-23.02 0-26.17-43.854 25.2-43.854z" fill="url(#paint4_linear_204_2882)"/><path d="M1307.22 254.562c7.43-15.264 32.57-45.793 73.66-45.793 51.36 0 48.21 43.854 25.2 43.854-11.34 0-16.85-3.935-22.46-7.93-5.77-4.119-11.64-8.303-24.06-8.303-20.33 0-34.97 8.358-46.01 14.661-2.25 1.285-4.36 2.485-6.33 3.511z" fill="url(#paint5_linear_204_2882)"/><path d="M1239.83 174.887c-11.22 9.494-29.91 35.106-37.44 55.019-9.41 24.892-5.45 52.073 3.96 67.858 9.41 15.785 19.44 53.012 19.44 67.583 0 5.84-5.49 6.144-5.49 0 0-14.874-6.68-44.927-17.91-64.658s-45.24-52.301-78.93-52.301c-33.7 0-39.47 57.069-15.79 57.069 21.29 0 20.76-17.105 20.44-27.617-.04-1.18-.07-2.277-.07-3.257 0-9.714 51.3 3.339 51.3 26.106 0 10.834-7.9 21.942-16.19 33.587-9.13 12.827-18.72 26.306-18.72 40.785 0 27.624 52.68 42.801 95.4 42.801 42.72 0 95.4-15.177 95.4-42.801 0-14.479-9.59-27.958-18.72-40.785-8.28-11.645-16.19-22.753-16.19-33.587 0-22.767 51.3-35.82 51.3-26.106 0 .979-.03 2.075-.07 3.254v.002c-.32 10.512-.84 27.618 20.44 27.618 23.68 0 17.91-57.069-15.78-57.069s-67.7 32.57-78.93 52.301c-11.23 19.731-17.91 49.784-17.91 64.658 0 6.144-5.49 5.84-5.49 0 0-14.571 10.02-51.798 19.43-67.583 9.41-15.785 13.38-42.966 3.97-67.858-7.53-19.913-26.23-45.525-37.45-55.019z" fill="url(#paint6_linear_204_2882)"/><path d="M1235.53 442.116l-46-.001c-.95 0-1.89.055-2.8.16-13.74 1.584-23.11 14.58-30.65 25.022-.33.458-.66.911-.98 1.357-4.85 6.698-8.95 12.029-13.02 12.029-.58 0-1.15-.02-1.72-.057-8.44-.564-14.52-5.137-17.13-7.105-.47-.358-.84-.63-1.08-.775.71 6.114 3.39 27.867 29.64 27.867 26.24 0 41.97-28.455 43.91-40.39 9.32 22.185 16.32 37.039 44.13 37.039 27.81 0 34.81-14.854 44.13-37.039 1.94 11.935 17.67 40.39 43.92 40.39 26.24 0 28.92-21.753 29.63-27.867-.24.145-.6.417-1.08.775-2.78 2.099-9.51 7.162-18.85 7.162-4.34 0-8.71-6.065-14-13.386-8.03-11.138-18.17-25.182-33.45-25.182l-50.3.001h-4.3z" fill="url(#paint7_linear_204_2882)"/><path d="M41.12 403.801c41.092 0 66.225-30.529 73.655-45.793-1.97 1.026-4.072 2.226-6.324 3.511-11.042 6.303-25.684 14.661-46.01 14.661-12.423 0-18.29-4.183-24.066-8.303-5.603-3.995-11.12-7.93-22.453-7.93-23.018 0-26.167 43.854 25.198 43.854z" fill="url(#paint8_linear_204_2882)"/><path d="M249.556 358.008c7.431 15.264 32.564 45.793 73.656 45.793 51.364 0 48.215-43.854 25.198-43.854-11.333 0-16.851 3.935-22.453 7.93-5.777 4.12-11.643 8.303-24.066 8.303-20.326 0-34.969-8.358-46.01-14.661-2.252-1.285-4.354-2.485-6.325-3.511z" fill="url(#paint9_linear_204_2882)"/><path d="M182.166 437.684c-11.222-9.495-29.916-35.107-37.445-55.02-9.41-24.892-5.447-52.072 3.963-67.858 9.41-15.785 19.435-53.012 19.435-67.583 0-5.84-5.488-6.143-5.488 0 0 14.875-6.678 44.927-17.91 64.658-11.231 19.732-45.237 52.301-78.932 52.301s-39.463-57.069-15.785-57.069c21.288 0 20.763 17.105 20.44 27.618-.036 1.179-.07 2.276-.07 3.256 0 9.714 51.301-3.339 51.301-26.106 0-10.833-7.905-21.942-16.191-33.587-9.127-12.827-18.718-26.305-18.718-40.784 0-27.624 52.681-42.802 95.4-42.802 42.719 0 95.4 15.178 95.4 42.802 0 14.479-9.591 27.957-18.719 40.784-8.286 11.645-16.19 22.754-16.19 33.587 0 22.767 51.3 35.82 51.3 26.106 0-.979-.033-2.075-.07-3.253v-.003c-.322-10.512-.847-27.618 20.441-27.618 23.677 0 17.91 57.069-15.785 57.069s-67.701-32.569-78.933-52.301c-11.231-19.731-17.909-49.783-17.909-64.658 0-6.143-5.489-5.84-5.489 0 0 14.571 10.025 51.798 19.436 67.584 9.41 15.785 13.373 42.965 3.962 67.857-7.528 19.913-26.223 45.525-37.444 55.02z" fill="url(#paint10_linear_204_2882)"/><path d="M177.866 170.455h-46.003a24.37 24.37 0 01-2.805-.16c-13.732-1.584-23.109-14.58-30.644-25.022l-.98-1.357c-4.85-6.698-8.95-12.029-13.016-12.029-.584 0-1.158.02-1.72.057-8.447.564-14.52 5.137-17.134 7.105-.475.358-.837.63-1.076.776.705-6.115 3.386-27.868 29.63-27.868 26.246 0 41.979 28.456 43.919 40.39 9.32-22.185 16.317-37.039 44.128-37.039s34.808 14.854 44.129 37.039c1.94-11.934 17.673-40.39 43.918-40.39s28.926 21.753 29.631 27.868c-.24-.146-.601-.418-1.077-.776-2.787-2.099-9.512-7.162-18.853-7.162-4.337 0-8.714 6.066-13.996 13.386-8.037 11.139-18.171 25.182-33.45 25.182l-50.302-.001-4.299.001z" fill="url(#paint11_linear_204_2882)"/><path d="M1427.61 403.801c41.09 0 66.22-30.529 73.65-45.793-1.97 1.026-4.07 2.226-6.32 3.511-11.04 6.303-25.69 14.661-46.01 14.661-12.42 0-18.29-4.183-24.07-8.303-5.6-3.995-11.12-7.93-22.45-7.93-23.02 0-26.17 43.854 25.2 43.854z" fill="url(#paint12_linear_204_2882)"/><path d="M1636.04 358.008c7.43 15.264 32.57 45.793 73.66 45.793 51.36 0 48.21-43.854 25.2-43.854-11.34 0-16.85 3.935-22.46 7.93-5.77 4.12-11.64 8.303-24.06 8.303-20.33 0-34.97-8.358-46.01-14.661-2.25-1.285-4.36-2.485-6.33-3.511z" fill="url(#paint13_linear_204_2882)"/><path d="M1568.65 437.684c-11.22-9.495-29.91-35.107-37.44-55.02-9.41-24.892-5.45-52.072 3.96-67.858 9.41-15.785 19.44-53.012 19.44-67.583 0-5.84-5.49-6.143-5.49 0 0 14.875-6.68 44.927-17.91 64.658-11.23 19.732-45.24 52.301-78.93 52.301-33.7 0-39.47-57.069-15.79-57.069 21.29 0 20.76 17.105 20.44 27.618-.03 1.179-.07 2.276-.07 3.256 0 9.714 51.3-3.339 51.3-26.106 0-10.833-7.9-21.942-16.19-33.587-9.13-12.827-18.72-26.305-18.72-40.784 0-27.624 52.68-42.802 95.4-42.802 42.72 0 95.4 15.178 95.4 42.802 0 14.479-9.59 27.957-18.72 40.784-8.28 11.645-16.19 22.754-16.19 33.587 0 22.767 51.3 35.82 51.3 26.106 0-.979-.03-2.075-.07-3.253v-.003c-.32-10.512-.84-27.618 20.45-27.618 23.67 0 17.91 57.069-15.79 57.069-33.69 0-67.7-32.569-78.93-52.301-11.23-19.731-17.91-49.783-17.91-64.658 0-6.143-5.49-5.84-5.49 0 0 14.571 10.02 51.798 19.43 67.584 9.42 15.785 13.38 42.965 3.97 67.857-7.53 19.913-26.23 45.525-37.45 55.02z" fill="url(#paint14_linear_204_2882)"/><path d="M1564.35 170.455h-46c-.95 0-1.89-.054-2.8-.16-13.74-1.584-23.11-14.58-30.65-25.022-.33-.458-.66-.91-.98-1.357-4.85-6.698-8.95-12.029-13.01-12.029-.59 0-1.16.02-1.73.057-8.44.564-14.51 5.137-17.13 7.105-.47.358-.84.63-1.08.776.71-6.115 3.39-27.868 29.64-27.868 26.24 0 41.97 28.456 43.91 40.39 9.32-22.185 16.32-37.039 44.13-37.039 27.81 0 34.81 14.854 44.13 37.039 1.94-11.934 17.67-40.39 43.92-40.39 26.24 0 28.92 21.753 29.63 27.868-.24-.146-.6-.418-1.08-.776-2.78-2.099-9.51-7.162-18.85-7.162-4.34 0-8.71 6.066-14 13.386-8.03 11.139-18.17 25.182-33.45 25.182l-50.3-.001-4.3.001z" fill="url(#paint15_linear_204_2882)"/><path d="M369.94 208.769c41.092 0 66.225 30.529 73.656 45.793-1.971-1.026-4.073-2.226-6.325-3.511-11.041-6.303-25.684-14.661-46.01-14.661-12.423 0-18.289 4.184-24.066 8.303-5.602 3.995-11.12 7.93-22.453 7.93-23.017 0-26.166-43.854 25.198-43.854z" fill="url(#paint16_linear_204_2882)"/><path d="M578.377 254.562c7.43-15.264 32.563-45.793 73.655-45.793 51.365 0 48.215 43.854 25.198 43.854-11.332 0-16.85-3.935-22.453-7.93-5.777-4.119-11.643-8.303-24.066-8.303-20.326 0-34.968 8.358-46.01 14.661-2.252 1.285-4.354 2.485-6.324 3.511z" fill="url(#paint17_linear_204_2882)"/><path d="M510.986 174.887c-11.221 9.494-29.916 35.106-37.444 55.019-9.411 24.892-5.448 52.073 3.962 67.858 9.411 15.785 19.436 53.012 19.436 67.583 0 5.84-5.489 6.144-5.489 0 0-14.874-6.678-44.927-17.909-64.658-11.232-19.731-45.238-52.301-78.933-52.301-33.695 0-39.463 57.069-15.785 57.069 21.288 0 20.763-17.105 20.44-27.617-.036-1.18-.07-2.277-.07-3.257 0-9.714 51.301 3.339 51.301 26.106 0 10.834-7.904 21.942-16.191 33.587-9.127 12.827-18.718 26.306-18.718 40.785 0 27.624 52.681 42.801 95.4 42.801 42.719 0 95.4-15.177 95.4-42.801 0-14.479-9.591-27.958-18.718-40.785-8.287-11.645-16.191-22.753-16.191-33.587 0-22.767 51.301-35.82 51.301-26.106 0 .979-.034 2.075-.07 3.254v.002c-.323 10.512-.848 27.618 20.44 27.618 23.678 0 17.91-57.069-15.785-57.069s-67.701 32.57-78.932 52.301c-11.232 19.731-17.91 49.784-17.91 64.658 0 6.144-5.488 5.84-5.488 0 0-14.571 10.025-51.798 19.435-67.583 9.41-15.785 13.373-42.966 3.963-67.858-7.529-19.913-26.224-45.525-37.445-55.019z" fill="url(#paint18_linear_204_2882)"/><path d="M506.686 442.116l-46.002-.001c-.955 0-1.89.055-2.806.16-13.732 1.584-23.109 14.58-30.644 25.022l-.98 1.357c-4.849 6.698-8.95 12.029-13.016 12.029-.584 0-1.157-.02-1.72-.057-8.447-.564-14.52-5.137-17.134-7.105-.475-.358-.836-.63-1.076-.775.705 6.114 3.386 27.867 29.631 27.867s41.978-28.455 43.918-40.39c9.321 22.185 16.318 37.039 44.128 37.039 27.811 0 34.809-14.854 44.129-37.039 1.94 11.935 17.673 40.39 43.918 40.39s28.926-21.753 29.631-27.867c-.239.145-.601.417-1.076.775-2.788 2.099-9.512 7.162-18.854 7.162-4.337 0-8.713-6.065-13.996-13.386-8.037-11.138-18.171-25.182-33.449-25.182l-50.303.001h-4.299z" fill="url(#paint19_linear_204_2882)"/><path d="M1662.03 417.959c48.26 0 77.77-35.849 86.5-53.774-2.32 1.205-4.79 2.614-7.43 4.124-12.97 7.401-30.16 17.216-54.03 17.216-14.59 0-21.48-4.913-28.26-9.751-6.58-4.691-13.06-9.312-26.37-9.312-27.03 0-30.72 51.497 29.59 51.497z" fill="url(#paint20_linear_204_2882)"/><path d="M1906.8 364.185c8.72 17.925 38.24 53.774 86.49 53.774 60.32 0 56.62-51.497 29.59-51.497-13.31 0-19.79 4.621-26.37 9.312-6.78 4.838-13.67 9.751-28.26 9.751-23.86 0-41.06-9.815-54.02-17.216-2.65-1.51-5.12-2.919-7.43-4.124z" fill="url(#paint21_linear_204_2882)"/><path d="M1827.66 457.748c-13.17-11.15-35.13-41.225-43.97-64.61-11.05-29.23-6.4-61.148 4.66-79.684 11.05-18.536 22.82-62.252 22.82-79.362 0-6.858-6.45-7.214-6.45 0 0 17.467-7.84 52.757-21.03 75.927-13.19 23.17-53.12 61.416-92.69 61.416s-46.34-67.015-18.53-67.015c24.99 0 24.38 20.087 24 32.431-.04 1.385-.08 2.673-.08 3.824 0 11.407 60.24-3.921 60.24-30.656 0-12.722-9.28-25.766-19.01-39.441-10.72-15.063-21.98-30.89-21.98-47.893 0-32.438 61.86-50.261 112.02-50.261 50.17 0 112.03 17.823 112.03 50.261 0 17.003-11.26 32.83-21.98 47.893-9.73 13.675-19.01 26.719-19.01 39.441 0 26.735 60.24 42.063 60.24 30.656 0-1.15-.04-2.437-.08-3.821v-.002c-.38-12.345-1-32.432 24-32.432 27.8 0 21.03 67.015-18.54 67.015-39.56 0-79.5-38.246-92.69-61.416-13.19-23.17-21.03-58.46-21.03-75.927 0-7.214-6.44-6.858-6.44 0 0 17.11 11.77 60.826 22.82 79.362 11.05 18.536 15.7 50.454 4.65 79.684-8.84 23.385-30.79 53.46-43.97 64.61z" fill="url(#paint22_linear_204_2882)"/><path d="M1822.61 143.943l-54.02.001c-1.12 0-2.22-.064-3.29-.188-16.13-1.86-27.14-17.121-35.99-29.383-.38-.538-.77-1.069-1.15-1.593-5.69-7.866-10.51-14.126-15.28-14.126-.69 0-1.36.023-2.02.067-9.92.662-17.05 6.032-20.12 8.343-.56.421-.98.74-1.27.911.83-7.18 3.98-32.724 34.8-32.724 30.82 0 49.29 33.414 51.57 47.429 10.95-26.052 19.16-43.494 51.82-43.494s40.88 17.442 51.82 43.494c2.28-14.015 20.76-47.43 51.57-47.43 30.82 0 33.97 25.545 34.8 32.725-.28-.171-.71-.49-1.26-.911-3.28-2.465-11.17-8.41-22.14-8.41-5.1 0-10.24 7.123-16.44 15.719-9.44 13.08-21.34 29.571-39.28 29.571l-59.07-.001h-5.05z" fill="url(#paint23_linear_204_2882)"/><defs><linearGradient id="paint0_linear_204_2882" x1="882.099" y1="0" x2="882.099" y2="442.62" gradientUnits="userSpaceOnUse"><stop stop-color="#3AC4FA"/><stop offset="1" stop-color="#0394CD"/></linearGradient><linearGradient id="paint1_linear_204_2882" x1="882.099" y1="0" x2="882.099" y2="442.62" gradientUnits="userSpaceOnUse"><stop stop-color="#3AC4FA"/><stop offset="1" stop-color="#0394CD"/></linearGradient><linearGradient id="paint2_linear_204_2882" x1="882.099" y1="0" x2="882.099" y2="442.62" gradientUnits="userSpaceOnUse"><stop stop-color="#3AC4FA"/><stop offset="1" stop-color="#0394CD"/></linearGradient><linearGradient id="paint3_linear_204_2882" x1="882.099" y1="0" x2="882.099" y2="442.62" gradientUnits="userSpaceOnUse"><stop stop-color="#3AC4FA"/><stop offset="1" stop-color="#0394CD"/></linearGradient><linearGradient id="paint4_linear_204_2882" x1="1239.83" y1="174.887" x2="1239.83" y2="500.613" gradientUnits="userSpaceOnUse"><stop stop-color="#3AC4FA"/><stop offset="1" stop-color="#0394CD"/></linearGradient><linearGradient id="paint5_linear_204_2882" x1="1239.83" y1="174.887" x2="1239.83" y2="500.613" gradientUnits="userSpaceOnUse"><stop stop-color="#3AC4FA"/><stop offset="1" stop-color="#0394CD"/></linearGradient><linearGradient id="paint6_linear_204_2882" x1="1239.83" y1="174.887" x2="1239.83" y2="500.613" gradientUnits="userSpaceOnUse"><stop stop-color="#3AC4FA"/><stop offset="1" stop-color="#0394CD"/></linearGradient><linearGradient id="paint7_linear_204_2882" x1="1239.83" y1="174.887" x2="1239.83" y2="500.613" gradientUnits="userSpaceOnUse"><stop stop-color="#3AC4FA"/><stop offset="1" stop-color="#0394CD"/></linearGradient><linearGradient id="paint8_linear_204_2882" x1="182.166" y1="437.684" x2="182.166" y2="111.957" gradientUnits="userSpaceOnUse"><stop stop-color="#0394CD"/><stop offset="1" stop-color="#3AC4FA"/></linearGradient><linearGradient id="paint9_linear_204_2882" x1="182.166" y1="437.684" x2="182.166" y2="111.957" gradientUnits="userSpaceOnUse"><stop stop-color="#0394CD"/><stop offset="1" stop-color="#3AC4FA"/></linearGradient><linearGradient id="paint10_linear_204_2882" x1="182.166" y1="437.684" x2="182.166" y2="111.957" gradientUnits="userSpaceOnUse"><stop stop-color="#0394CD"/><stop offset="1" stop-color="#3AC4FA"/></linearGradient><linearGradient id="paint11_linear_204_2882" x1="182.166" y1="437.684" x2="182.166" y2="111.957" gradientUnits="userSpaceOnUse"><stop stop-color="#0394CD"/><stop offset="1" stop-color="#3AC4FA"/></linearGradient><linearGradient id="paint12_linear_204_2882" x1="1568.65" y1="437.684" x2="1568.65" y2="111.957" gradientUnits="userSpaceOnUse"><stop stop-color="#0394CD"/><stop offset="1" stop-color="#3AC4FA"/></linearGradient><linearGradient id="paint13_linear_204_2882" x1="1568.65" y1="437.684" x2="1568.65" y2="111.957" gradientUnits="userSpaceOnUse"><stop stop-color="#0394CD"/><stop offset="1" stop-color="#3AC4FA"/></linearGradient><linearGradient id="paint14_linear_204_2882" x1="1568.65" y1="437.684" x2="1568.65" y2="111.957" gradientUnits="userSpaceOnUse"><stop stop-color="#0394CD"/><stop offset="1" stop-color="#3AC4FA"/></linearGradient><linearGradient id="paint15_linear_204_2882" x1="1568.65" y1="437.684" x2="1568.65" y2="111.957" gradientUnits="userSpaceOnUse"><stop stop-color="#0394CD"/><stop offset="1" stop-color="#3AC4FA"/></linearGradient><linearGradient id="paint16_linear_204_2882" x1="510.986" y1="174.887" x2="510.986" y2="500.613" gradientUnits="userSpaceOnUse"><stop stop-color="#3AC4FA"/><stop offset="1" stop-color="#0394CD"/></linearGradient><linearGradient id="paint17_linear_204_2882" x1="510.986" y1="174.887" x2="510.986" y2="500.613" gradientUnits="userSpaceOnUse"><stop stop-color="#3AC4FA"/><stop offset="1" stop-color="#0394CD"/></linearGradient><linearGradient id="paint18_linear_204_2882" x1="510.986" y1="174.887" x2="510.986" y2="500.613" gradientUnits="userSpaceOnUse"><stop stop-color="#3AC4FA"/><stop offset="1" stop-color="#0394CD"/></linearGradient><linearGradient id="paint19_linear_204_2882" x1="510.986" y1="174.887" x2="510.986" y2="500.613" gradientUnits="userSpaceOnUse"><stop stop-color="#3AC4FA"/><stop offset="1" stop-color="#0394CD"/></linearGradient><linearGradient id="paint20_linear_204_2882" x1="1827.66" y1="457.748" x2="1827.66" y2="75.251" gradientUnits="userSpaceOnUse"><stop stop-color="#3AC4FA"/><stop offset="1" stop-color="#0394CD"/></linearGradient><linearGradient id="paint21_linear_204_2882" x1="1827.66" y1="457.748" x2="1827.66" y2="75.251" gradientUnits="userSpaceOnUse"><stop stop-color="#3AC4FA"/><stop offset="1" stop-color="#0394CD"/></linearGradient><linearGradient id="paint22_linear_204_2882" x1="1827.66" y1="457.748" x2="1827.66" y2="75.251" gradientUnits="userSpaceOnUse"><stop stop-color="#3AC4FA"/><stop offset="1" stop-color="#0394CD"/></linearGradient><linearGradient id="paint23_linear_204_2882" x1="1827.66" y1="457.748" x2="1827.66" y2="75.251" gradientUnits="userSpaceOnUse"><stop stop-color="#3AC4FA"/><stop offset="1" stop-color="#0394CD"/></linearGradient></defs></svg>