<svg width="859" height="386" fill="none" xmlns="http://www.w3.org/2000/svg"><path fill-rule="evenodd" clip-rule="evenodd" d="M521.264 243.477L740.432 0h88.851l29.618 68.292-47.388 47.508-26.655-29.692 17.77-26.723c0 1.98 2.962 11.877 5.923 14.846 2.962 2.969 11.847 5.938 14.809-5.939 2.962-11.877-6.911-28.702-14.809-38.6h-50.349l26.656 41.57h-56.273l32.579 44.538h-71.082l35.541 47.508h-77.005l35.541 47.507h-71.082l35.541 47.508h-59.234v41.569h136.239l8.885-29.692 32.579 35.631c-8.885 10.887-31.394 32.661-50.349 32.661H589.384l-68.12-95.015zm-183.627 0L118.469 0H29.617L0 68.292 47.388 115.8l26.655-29.692-17.77-26.723c0 1.98-2.962 11.877-5.924 14.846-2.962 2.969-11.847 5.938-14.808-5.939-2.962-11.877 6.91-28.702 14.808-38.6h50.35l-26.656 41.57h56.273L97.736 115.8h71.082l-35.54 47.508h77.004l-35.54 47.507h71.081l-35.541 47.508h59.235v41.569H133.278l-8.886-29.692-32.579 35.631c8.886 10.887 31.395 32.661 50.35 32.661h127.354l68.12-95.015zm91.813-95.015h14.809l11.847 26.723L580.498 47.508l47.388 59.384h-71.081l35.54 41.57h-68.119l20.732 35.63h-53.311l20.732 38.6h-68.12v53.447c0 14.252 23.694 33.651 35.541 41.569l17.77-20.785-8.885-8.908-8.885 8.908-17.771-17.815 17.771-23.754 41.464 41.569-41.464 44.539-35.541-26.723 17.77 41.569L429.45 386l-32.579-29.692 17.771-41.569-35.541 26.723-41.464-44.539 41.464-41.569 17.77 23.754-17.77 17.815-8.885-8.908-8.885 8.908 17.77 20.785c11.847-7.918 35.541-27.317 35.541-41.569v-53.447h-68.12l20.732-38.6h-53.311l20.732-35.63h-68.12l35.541-41.57h-71.081l47.387-59.384 124.393 127.677 11.847-26.723h14.808z" fill="#0394CD"/></svg>