<svg width="59" height="109" fill="none" xmlns="http://www.w3.org/2000/svg"><path d="M8.2 57.762C-6.599 72.573 2.281 108.12 6.72 108.12c4.44 0 1.48-22.216 13.319-32.584 11.839-10.367 20.06-6.139 20.06-14.05 0-8.438-6.741-2.242-11.18.72-4.44 2.963-7.4-1.48-2.96-4.443 4.439-2.962 32.556-13.33 32.556-26.66 0-10.161-2.96-11.848-7.4-11.848-4.439 0-7.398 2.962-7.398 7.406 0 4.443-4.44 4.443-4.44 0C39.277 22.216 36.317 0 18.56 0S5.241 20.735 9.68 16.292c4.44-4.443 19.238-1.481 19.238 14.81 0 16.293-7.4 13.33-20.718 26.66z" fill="#022D3A"/></svg>