<svg width="267" height="359" fill="none" xmlns="http://www.w3.org/2000/svg"><path d="M77.01 294.439c0 37.639-19.253 64.278-21.244 68.254-1.992 3.976-.664 11.928 8.63 9.277 9.294-2.651 27.883-35.121 27.883-74.218 0-16.433-5.31-43.514-8.63-55-4.78-21.735 8.63-33.796 17.261-37.772 8.63-3.976 32.115-4.638 32.53 1.988.414 6.627 5.974 33.133 25.891 33.133 19.916 0 24.336-20.566 23.236-46.386-1.328-31.145-41.161-36.446-73.027-24.518-25.493 9.542-34.522 37.771-35.85 49.699l-.027-.046c-16.161-26.738-46.444-76.84-46.444-108.63 0-39.76 25.227-69.579 60.413-69.579 35.185 0 51.119 13.253 51.119 27.17 0 13.915-17.645 18.857-23.236 39.759-5.997 22.42 9.294 37.109 29.21 37.109 19.917 0 21.245-25.181 34.522-25.181 13.278 0 19.253 13.915 23.236 21.867 3.983 7.952 11.95 8.615 21.908 3.314 9.958-5.302 12.614.662 20.58-3.314 7.967-3.976 0-10.602 5.311-17.229 5.311-6.626 17.261-9.94 15.933-16.566-1.328-6.627-17.925-23.856-23.899-31.145-5.975-7.29-8.631-19.217 5.974-23.193 14.606-3.976 17.925-21.868 17.925-27.832 0-5.964-5.596-25.4-30.891-25.4-25.296 0-35.497 12.147-40.144 14.798-4.647 2.65-11.95 5.3-25.227 0-13.278-5.302-33.194-11.928-65.06-11.928S0 28.05 0 103.594c0 75.543 77.01 143.796 77.01 190.845z" fill="#fff"/></svg>