<svg width="788" height="354" fill="none" xmlns="http://www.w3.org/2000/svg"><path fill-rule="evenodd" clip-rule="evenodd" d="M309.765 223.292L108.69 0H27.172L0 62.63l43.476 43.57L67.93 78.97 51.628 54.461c0 1.815-2.718 10.892-5.435 13.615-2.717 2.723-10.869 5.446-13.586-5.446-2.717-10.892 6.34-26.323 13.586-35.4h46.193L67.931 65.354h51.627L89.668 106.2h65.215l-32.607 43.569h70.648l-32.607 43.569h65.214l-32.607 43.57h54.345v38.123H122.276l-8.152-27.231-29.89 32.677c8.152 9.985 28.803 29.954 46.193 29.954h116.842l62.496-87.139zm168.47 0L679.31 0h81.518L788 62.63l-43.476 43.57-24.455-27.23 16.303-24.508c0 1.815 2.718 10.892 5.435 13.615 2.717 2.723 10.869 5.446 13.586-5.446 2.717-10.892-6.34-26.323-13.586-35.4h-46.193l24.455 38.123h-51.627l29.889 40.846h-65.214l32.607 43.569h-70.648l32.607 43.569h-65.214l32.607 43.57h-54.345v38.123h124.993l8.152-27.231 29.89 32.677c-8.152 9.985-28.803 29.954-46.193 29.954H540.731l-62.496-87.139zM394 136.154h-13.586l-10.869 24.508L255.421 43.569l-43.476 54.462h65.214l-32.607 38.123h62.496l-19.02 32.677h48.91l-19.021 35.4h62.497v49.015c0 13.071-21.738 30.862-32.607 38.123l-16.304-19.061 8.152-8.17 8.152 8.17 16.303-16.339-16.303-21.784-38.041 38.123 38.041 40.846 32.607-24.508-16.304 38.123L394 354l29.89-27.231-16.304-38.123 32.607 24.508 38.041-40.846-38.041-38.123-16.303 21.784 16.303 16.339 8.152-8.17 8.152 8.17-16.304 19.061c-10.869-7.261-32.607-25.052-32.607-38.123v-49.015h62.497l-19.021-35.4h48.91l-19.02-32.677h62.496l-32.607-38.123h65.214l-43.476-54.462-114.124 117.093-10.869-24.508H394z" fill="#fff"/></svg>