<svg width="1827" height="426" fill="none" xmlns="http://www.w3.org/2000/svg"><g opacity=".1" fill-rule="evenodd" clip-rule="evenodd"><path d="M1353.59 324.295l-106.84-118.69h-43.31L1189 238.896l23.1 23.159 12.99-14.474-8.66-13.027c0 .965-1.44 5.789-2.89 7.237-1.44 1.447-5.77 2.895-7.21-2.895-1.45-5.79 3.36-13.992 7.21-18.817h24.55l-13 20.264h27.44l-15.89 21.712h34.66l-17.33 23.159h37.54l-17.33 23.159h34.65l-17.32 23.159h28.87v20.264h-66.41l-4.33-14.474-15.88 17.369c4.33 5.307 15.3 15.922 24.54 15.922h62.08l33.21-46.318zm89.52 0l106.84-118.69h43.31l14.44 33.291-23.1 23.159-13-14.474 8.66-13.027c0 .965 1.45 5.789 2.89 7.237 1.45 1.447 5.78 2.895 7.22-2.895 1.44-5.79-3.37-13.992-7.22-18.817h-24.54l12.99 20.264h-27.43l15.88 21.712h-34.65l17.33 23.159h-37.54l17.32 23.159h-34.65l17.33 23.159h-28.88v20.264h66.42l4.33-14.474 15.88 17.369c-4.33 5.307-15.3 15.922-24.55 15.922h-62.08l-33.2-46.318zm-44.76-46.318h-7.22l-5.78 13.027-60.63-62.24-23.11 28.949h34.66l-17.33 20.264h33.21l-10.11 17.369h25.99l-10.11 18.817h33.21v26.054c0 6.947-11.55 16.404-17.33 20.264l-8.66-10.132 4.33-4.343 4.33 4.343 8.67-8.685-8.67-11.579-20.21 20.264 20.21 21.711 17.33-13.027-8.66 20.265 15.88 14.474 15.88-14.474-8.66-20.265 17.32 13.027 20.22-21.711-20.22-20.264-8.66 11.579 8.66 8.685 4.33-4.343 4.34 4.343-8.67 10.132c-5.77-3.86-17.32-13.317-17.32-20.264v-26.054h33.2l-10.1-18.817h25.99l-10.11-17.369h33.21l-17.33-20.264h34.65l-23.1-28.949-60.64 62.24-5.77-13.027h-7.22z" fill="url(#paint0_linear_237_10956)"/><path d="M173.591 109.477l-106.84 118.69H23.438L9 194.876l23.1-23.159 12.994 14.474-8.662 13.027c0-.965-1.444-5.789-2.888-7.237-1.444-1.447-5.775-2.895-7.219 2.895-1.443 5.79 3.37 13.992 7.22 18.817h24.544l-12.995-20.264h27.432l-15.881-21.712h34.65L73.97 148.558h37.538l-17.325-23.159h34.651l-17.326-23.159h28.876V81.976H73.97L69.639 96.45 53.757 79.08c4.333-5.305 15.304-15.92 24.544-15.92h62.083l33.207 46.318zm89.514 0l106.84 118.69h43.314l14.437-33.291-23.1-23.159-12.994 14.474 8.663 13.027c0-.965 1.443-5.789 2.887-7.237 1.444-1.447 5.775-2.895 7.219 2.895s-3.369 13.992-7.219 18.817h-24.544l12.994-20.264H364.17l15.882-21.712h-34.651l17.325-23.159h-37.538l17.325-23.159h-34.65l17.325-23.159h-28.876V81.976h66.414l4.332 14.474 15.881-17.37c-4.331-5.306-15.304-15.921-24.544-15.921h-62.083l-33.207 46.318zm-44.757 46.318h-7.219l-5.775-13.027-60.639 62.24-23.1-28.949h34.651l-17.326-20.264h33.207l-10.106-17.369h25.988l-10.107-18.817h33.207V93.555c0-6.948-11.55-16.404-17.325-20.264l-8.663 10.132 4.332 4.343 4.331-4.343 8.663 8.685-8.663 11.579-20.213-20.264 20.213-21.711 17.325 13.026-8.662-20.264L218.348 40l15.882 14.474-8.663 20.265 17.325-13.027 20.213 21.711-20.213 20.264-8.662-11.58 8.662-8.684 4.332 4.343 4.331-4.343-8.663-10.132c-5.775 3.86-17.325 13.317-17.325 20.264v26.054h33.207l-10.106 18.817h25.988l-10.107 17.369h33.207l-17.325 20.264h34.65l-23.1 28.949-60.639-62.24-5.775 13.027h-7.219z" fill="url(#paint1_linear_237_10956)"/><path d="M1532.59 109.477l-106.84 118.69h-43.31L1368 194.876l23.1-23.159 12.99 14.474-8.66 13.027c0-.965-1.44-5.789-2.89-7.237-1.44-1.447-5.77-2.895-7.21 2.895-1.45 5.79 3.36 13.992 7.21 18.817h24.55l-13-20.264h27.44l-15.89-21.712h34.66l-17.33-23.159h37.54l-17.33-23.159h34.65l-17.32-23.159h28.87V81.976h-66.41l-4.33 14.474-15.88-17.37c4.33-5.306 15.3-15.921 24.54-15.921h62.08l33.21 46.318zm89.52 0l106.84 118.69h43.31l14.44-33.291-23.1-23.159-13 14.474 8.66 13.027c0-.965 1.45-5.789 2.89-7.237 1.45-1.447 5.78-2.895 7.22 2.895 1.44 5.79-3.37 13.992-7.22 18.817h-24.54l12.99-20.264h-27.43l15.88-21.712h-34.65l17.33-23.159h-37.54l17.32-23.159h-34.65l17.33-23.159h-28.88V81.976h66.42l4.33 14.474 15.88-17.37c-4.33-5.306-15.3-15.921-24.55-15.921h-62.08l-33.2 46.318zm-44.76 46.318h-7.22l-5.78-13.027-60.63 62.24-23.11-28.949h34.66l-17.33-20.264h33.21l-10.11-17.369h25.99l-10.11-18.817h33.21V93.555c0-6.948-11.55-16.404-17.33-20.264l-8.66 10.132 4.33 4.343 4.33-4.343 8.67 8.685-8.67 11.579-20.21-20.264 20.21-21.711 17.33 13.026-8.66-20.264L1577.35 40l15.88 14.474-8.66 20.265 17.32-13.027 20.22 21.711-20.22 20.264-8.66-11.58 8.66-8.684 4.33 4.343 4.34-4.343-8.67-10.132c-5.77 3.86-17.32 13.317-17.32 20.264v26.054h33.2l-10.1 18.817h25.99l-10.11 17.369h33.21l-17.33 20.264h34.65l-23.1 28.949-60.64-62.24-5.77 13.027h-7.22z" fill="url(#paint2_linear_237_10956)"/><path d="M352.591 324.295l-106.84-118.69h-43.313L188 238.896l23.1 23.159 12.994-14.474-8.662-13.027c0 .965-1.444 5.79-2.888 7.237s-5.775 2.895-7.219-2.895c-1.443-5.79 3.369-13.992 7.219-18.817h24.544l-12.994 20.265h27.432l-15.881 21.711h34.65l-17.325 23.159h37.538l-17.325 23.159h34.651l-17.326 23.159h28.876v20.264H252.97l-4.331-14.474-15.882 17.369c4.331 5.308 15.304 15.922 24.544 15.922h62.083l33.207-46.318zm89.514 0l106.84-118.69h43.314l14.437 33.291-23.1 23.159-12.994-14.474 8.663-13.027c0 .965 1.443 5.79 2.887 7.237s5.775 2.895 7.219-2.895-3.369-13.992-7.219-18.817h-24.544l12.994 20.265H543.17l15.882 21.711h-34.651l17.325 23.159h-37.538l17.325 23.159h-34.65l17.325 23.159h-28.876v20.264h66.414l4.332-14.474 15.881 17.369c-4.331 5.308-15.304 15.922-24.544 15.922h-62.083l-33.207-46.318zm-44.757-46.318h-7.219l-5.775 13.027-60.639-62.24-23.1 28.949h34.651l-17.326 20.264h33.207l-10.106 17.369h25.988l-10.107 18.817h33.207v26.054c0 6.948-11.55 16.404-17.325 20.264l-8.663-10.132 4.332-4.342 4.331 4.342 8.663-8.685-8.663-11.579-20.213 20.264 20.213 21.712 17.325-13.027-8.662 20.264 15.881 14.474 15.882-14.474-8.663-20.264 17.325 13.027 20.213-21.712-20.213-20.264-8.662 11.579 8.662 8.685 4.332-4.342 4.331 4.342-8.663 10.132c-5.775-3.86-17.325-13.316-17.325-20.264v-26.054h33.207l-10.106-18.817h25.988l-10.107-17.369h33.207l-17.325-20.264h34.65l-23.1-28.949-60.639 62.24-5.775-13.027h-7.219z" fill="url(#paint3_linear_237_10956)"/><path d="M810.646 285.292L609.648 62h-81.486L501 124.631l43.459 43.569 24.446-27.231-16.297-24.507c0 1.815-2.717 10.892-5.433 13.615-2.716 2.723-10.864 5.446-13.581-5.446-2.716-10.892 6.338-26.323 13.581-35.4h46.175l-24.445 38.123h51.607L590.634 168.2h65.189l-32.594 43.569h70.621l-32.595 43.57h65.189l-32.594 43.569h54.324v38.123H623.229L615.08 309.8l-29.878 32.677c8.148 9.985 28.792 29.954 46.175 29.954h116.797l62.472-87.139zm168.404 0L1180.05 62h81.48l27.17 62.631-43.46 43.569-24.45-27.231 16.3-24.507c0 1.815 2.71 10.892 5.43 13.615 2.72 2.723 10.87 5.446 13.58-5.446 2.72-10.892-6.34-26.323-13.58-35.4h-46.17l24.44 38.123h-51.61l29.88 40.846h-65.19l32.6 43.569h-70.62l32.59 43.57h-65.19l32.6 43.569h-54.33v38.123h124.95l8.15-27.231 29.87 32.677c-8.14 9.985-28.79 29.954-46.17 29.954h-116.8l-62.47-87.139zm-84.202-87.138h-13.581l-10.865 24.508-114.08-117.093-43.459 54.462h65.189l-32.595 38.123h62.473l-19.013 32.677h48.891l-19.013 35.4h62.472v49.015c0 13.071-21.729 30.862-32.594 38.123l-16.297-19.061 8.148-8.169 8.149 8.169 16.297-16.339-16.297-21.784-38.027 38.123 38.027 40.846 32.594-24.508-16.297 38.123L894.848 416l29.878-27.231-16.297-38.123 32.594 24.508 38.027-40.846-38.027-38.123-16.297 21.784 16.297 16.339 8.149-8.169 8.149 8.169-16.298 19.061c-10.864-7.261-32.594-25.052-32.594-38.123v-49.015h62.473l-19.014-35.4h48.892l-19.014-32.677h62.474l-32.6-38.123h65.19l-43.46-54.462-114.076 117.093-10.865-24.508h-13.581z" fill="url(#paint4_linear_237_10956)"/></g><g opacity=".1" fill-rule="evenodd" clip-rule="evenodd"><path d="M1363.59 314.295l-106.84-118.69h-43.31L1199 228.896l23.1 23.159 12.99-14.474-8.66-13.027c0 .965-1.44 5.789-2.89 7.237-1.44 1.447-5.77 2.895-7.21-2.895-1.45-5.79 3.36-13.992 7.21-18.817h24.55l-13 20.264h27.44l-15.89 21.712h34.66l-17.33 23.159h37.54l-17.33 23.159h34.65l-17.32 23.159h28.87v20.264h-66.41l-4.33-14.474-15.88 17.369c4.33 5.307 15.3 15.922 24.54 15.922h62.08l33.21-46.318zm89.52 0l106.84-118.69h43.31l14.44 33.291-23.1 23.159-13-14.474 8.66-13.027c0 .965 1.45 5.789 2.89 7.237 1.45 1.447 5.78 2.895 7.22-2.895 1.44-5.79-3.37-13.992-7.22-18.817h-24.54l12.99 20.264h-27.43l15.88 21.712h-34.65l17.33 23.159h-37.54l17.32 23.159h-34.65l17.33 23.159h-28.88v20.264h66.42l4.33-14.474 15.88 17.369c-4.33 5.307-15.3 15.922-24.55 15.922h-62.08l-33.2-46.318zm-44.76-46.318h-7.22l-5.78 13.027-60.63-62.24-23.11 28.949h34.66l-17.33 20.264h33.21l-10.11 17.369h25.99l-10.11 18.817h33.21v26.054c0 6.947-11.55 16.404-17.33 20.264l-8.66-10.132 4.33-4.343 4.33 4.343 8.67-8.685-8.67-11.579-20.21 20.264 20.21 21.711 17.33-13.027-8.66 20.265 15.88 14.474 15.88-14.474-8.66-20.265 17.32 13.027 20.22-21.711-20.22-20.264-8.66 11.579 8.66 8.685 4.33-4.343 4.34 4.343-8.67 10.132c-5.77-3.86-17.32-13.317-17.32-20.264v-26.054h33.2l-10.1-18.817h25.99l-10.11-17.369h33.21l-17.33-20.264h34.65l-23.1-28.949-60.64 62.24-5.77-13.027h-7.22z" fill="url(#paint5_linear_237_10956)"/><path d="M183.591 99.477l-106.84 118.69H33.438L19 184.876l23.1-23.159 12.994 14.474-8.662 13.027c0-.965-1.444-5.789-2.888-7.237-1.444-1.447-5.775-2.895-7.219 2.895-1.443 5.79 3.37 13.992 7.22 18.817h24.543l-12.994-20.264h27.432l-15.881-21.712h34.65L83.97 138.558h37.538l-17.325-23.159h34.651l-17.326-23.16h28.876V71.977H83.97L79.639 86.45 63.757 69.08c4.331-5.306 15.304-15.921 24.544-15.921h62.083l33.207 46.318zm89.514 0l106.84 118.69h43.314l14.437-33.291-23.1-23.159-12.994 14.474 8.663 13.027c0-.965 1.443-5.789 2.887-7.237 1.444-1.447 5.775-2.895 7.219 2.895s-3.369 13.992-7.219 18.817h-24.544l12.994-20.264H374.17l15.882-21.712h-34.651l17.325-23.159h-37.538l17.325-23.159h-34.65l17.325-23.16h-28.876V71.977h66.414l4.332 14.474 15.881-17.37c-4.331-5.306-15.304-15.921-24.544-15.921h-62.083l-33.207 46.318zm-44.757 46.318h-7.219l-5.775-13.027-60.639 62.24-23.1-28.949h34.651l-17.326-20.264h33.207l-10.106-17.369h25.988l-10.107-18.817h33.207V83.555c0-6.948-11.55-16.404-17.325-20.264l-8.663 10.132 4.332 4.343 4.331-4.343 8.663 8.685-8.663 11.58-20.213-20.265 20.213-21.711 17.325 13.026-8.662-20.264L228.348 30l15.882 14.474-8.663 20.265 17.325-13.027 20.213 21.711-20.213 20.264-8.662-11.58 8.662-8.684 4.332 4.343 4.331-4.343-8.663-10.132c-5.775 3.86-17.325 13.317-17.325 20.264v26.054h33.207l-10.106 18.817h25.988l-10.107 17.369h33.207l-17.325 20.264h34.65l-23.1 28.949-60.639-62.24-5.775 13.027h-7.219z" fill="url(#paint6_linear_237_10956)"/><path d="M1542.59 99.477l-106.84 118.69h-43.31L1378 184.876l23.1-23.159 12.99 14.474-8.66 13.027c0-.965-1.44-5.789-2.89-7.237-1.44-1.447-5.77-2.895-7.21 2.895-1.45 5.79 3.36 13.992 7.21 18.817h24.55l-13-20.264h27.44l-15.89-21.712h34.66l-17.33-23.159h37.54l-17.33-23.159h34.65l-17.32-23.16h28.87V71.977h-66.41l-4.33 14.474-15.88-17.37c4.33-5.306 15.3-15.921 24.54-15.921h62.08l33.21 46.318zm89.52 0l106.84 118.69h43.31l14.44-33.291-23.1-23.159-13 14.474 8.66 13.027c0-.965 1.45-5.789 2.89-7.237 1.45-1.447 5.78-2.895 7.22 2.895 1.44 5.79-3.37 13.992-7.22 18.817h-24.54l12.99-20.264h-27.43l15.88-21.712h-34.65l17.33-23.159h-37.54l17.32-23.159h-34.65l17.33-23.16h-28.88V71.977h66.42l4.33 14.474 15.88-17.37c-4.33-5.306-15.3-15.921-24.55-15.921h-62.08l-33.2 46.318zm-44.76 46.318h-7.22l-5.78-13.027-60.63 62.24-23.11-28.949h34.66l-17.33-20.264h33.21l-10.11-17.369h25.99l-10.11-18.817h33.21V83.555c0-6.948-11.55-16.404-17.33-20.264l-8.66 10.132 4.33 4.343 4.33-4.343 8.67 8.685-8.67 11.58-20.21-20.265 20.21-21.711 17.33 13.026-8.66-20.264L1587.35 30l15.88 14.474-8.66 20.265 17.32-13.027 20.22 21.711-20.22 20.264-8.66-11.58 8.66-8.684 4.33 4.343 4.34-4.343-8.67-10.132c-5.77 3.86-17.32 13.317-17.32 20.264v26.054h33.2l-10.1 18.817h25.99l-10.11 17.369h33.21l-17.33 20.264h34.65l-23.1 28.949-60.64-62.24-5.77 13.027h-7.22z" fill="url(#paint7_linear_237_10956)"/><path d="M362.591 314.295l-106.84-118.69h-43.313L198 228.896l23.1 23.159 12.994-14.474-8.662-13.027c0 .965-1.444 5.79-2.888 7.237s-5.775 2.895-7.219-2.895c-1.443-5.79 3.369-13.992 7.219-18.817h24.544l-12.994 20.265h27.432l-15.881 21.711h34.65l-17.325 23.159h37.538l-17.325 23.159h34.651l-17.326 23.159h28.876v20.264H262.97l-4.331-14.474-15.882 17.369c4.331 5.308 15.304 15.922 24.544 15.922h62.083l33.207-46.318zm89.514 0l106.84-118.69h43.314l14.437 33.291-23.1 23.159-12.994-14.474 8.663-13.027c0 .965 1.443 5.79 2.887 7.237s5.775 2.895 7.219-2.895-3.369-13.992-7.219-18.817h-24.544l12.994 20.265H553.17l15.882 21.711h-34.651l17.325 23.159h-37.538l17.325 23.159h-34.65l17.325 23.159h-28.876v20.264h66.414l4.332-14.474 15.881 17.369c-4.331 5.308-15.304 15.922-24.544 15.922h-62.083l-33.207-46.318zm-44.757-46.318h-7.219l-5.775 13.027-60.639-62.24-23.1 28.949h34.651l-17.326 20.264h33.207l-10.106 17.369h25.988l-10.107 18.817h33.207v26.054c0 6.948-11.55 16.404-17.325 20.264l-8.663-10.132 4.332-4.342 4.331 4.342 8.663-8.685-8.663-11.579-20.213 20.264 20.213 21.712 17.325-13.027-8.662 20.264 15.881 14.474 15.882-14.474-8.663-20.264 17.325 13.027 20.213-21.712-20.213-20.264-8.662 11.579 8.662 8.685 4.332-4.342 4.331 4.342-8.663 10.132c-5.775-3.86-17.325-13.316-17.325-20.264v-26.054h33.207l-10.106-18.817h25.988l-10.107-17.369h33.207l-17.325-20.264h34.65l-23.1-28.949-60.639 62.24-5.775-13.027h-7.219z" fill="url(#paint8_linear_237_10956)"/><path d="M820.646 275.292L619.648 52h-81.486L511 114.631l43.459 43.569 24.446-27.231-16.297-24.507c0 1.815-2.717 10.892-5.433 13.615-2.716 2.723-10.864 5.446-13.581-5.446-2.716-10.892 6.338-26.323 13.581-35.4h46.175l-24.445 38.123h51.607L600.634 158.2h65.189l-32.594 43.569h70.621l-32.595 43.57h65.189l-32.594 43.569h54.324v38.123H633.229L625.08 299.8l-29.878 32.677c8.148 9.985 28.792 29.954 46.175 29.954h116.797l62.472-87.139zm168.404 0L1190.05 52h81.48l27.17 62.631-43.46 43.569-24.45-27.231 16.3-24.507c0 1.815 2.71 10.892 5.43 13.615 2.72 2.723 10.87 5.446 13.58-5.446 2.72-10.892-6.34-26.323-13.58-35.4h-46.17l24.44 38.123h-51.61l29.88 40.846h-65.19l32.6 43.569h-70.62l32.59 43.57h-65.19l32.6 43.569h-54.33v38.123h124.95l8.15-27.231 29.87 32.677c-8.14 9.985-28.79 29.954-46.17 29.954h-116.8l-62.47-87.139zm-84.202-87.138h-13.581l-10.865 24.508-114.08-117.093-43.459 54.462h65.189l-32.595 38.123h62.473l-19.013 32.677h48.891l-19.013 35.4h62.472v49.015c0 13.071-21.729 30.862-32.594 38.123l-16.297-19.061 8.148-8.169 8.149 8.169 16.297-16.339-16.297-21.784-38.027 38.123 38.027 40.846 32.594-24.508-16.297 38.123L904.848 406l29.878-27.231-16.297-38.123 32.594 24.508 38.027-40.846-38.027-38.123-16.297 21.784 16.297 16.339 8.149-8.169 8.149 8.169-16.298 19.061c-10.864-7.261-32.594-25.052-32.594-38.123v-49.015h62.473l-19.014-35.4h48.892l-19.014-32.677h62.474l-32.6-38.123h65.19l-43.46-54.462-114.076 117.093-10.865-24.508h-13.581z" fill="url(#paint9_linear_237_10956)"/></g><g opacity=".1" fill-rule="evenodd" clip-rule="evenodd"><path d="M1373.59 304.295l-106.84-118.69h-43.31L1209 218.896l23.1 23.159 12.99-14.474-8.66-13.027c0 .965-1.44 5.789-2.89 7.237-1.44 1.447-5.77 2.895-7.21-2.895-1.45-5.79 3.36-13.992 7.21-18.817h24.55l-13 20.264h27.44l-15.89 21.712h34.66l-17.33 23.159h37.54l-17.33 23.159h34.65l-17.32 23.159h28.87v20.264h-66.41l-4.33-14.474-15.88 17.369c4.33 5.307 15.3 15.922 24.54 15.922h62.08l33.21-46.318zm89.52 0l106.84-118.69h43.31l14.44 33.291-23.1 23.159-13-14.474 8.66-13.027c0 .965 1.45 5.789 2.89 7.237 1.45 1.447 5.78 2.895 7.22-2.895 1.44-5.79-3.37-13.992-7.22-18.817h-24.54l12.99 20.264h-27.43l15.88 21.712h-34.65l17.33 23.159h-37.54l17.32 23.159h-34.65l17.33 23.159h-28.88v20.264h66.42l4.33-14.474 15.88 17.369c-4.33 5.307-15.3 15.922-24.55 15.922h-62.08l-33.2-46.318zm-44.76-46.318h-7.22l-5.78 13.027-60.63-62.24-23.11 28.949h34.66l-17.33 20.264h33.21l-10.11 17.369h25.99l-10.11 18.817h33.21v26.054c0 6.947-11.55 16.404-17.33 20.264l-8.66-10.132 4.33-4.343 4.33 4.343 8.67-8.685-8.67-11.579-20.21 20.264 20.21 21.711 17.33-13.027-8.66 20.265 15.88 14.474 15.88-14.474-8.66-20.265 17.32 13.027 20.22-21.711-20.22-20.264-8.66 11.579 8.66 8.685 4.33-4.343 4.34 4.343-8.67 10.132c-5.77-3.86-17.32-13.317-17.32-20.264v-26.054h33.2l-10.1-18.817h25.99l-10.11-17.369h33.21l-17.33-20.264h34.65l-23.1-28.949-60.64 62.24-5.77-13.027h-7.22z" fill="url(#paint10_linear_237_10956)"/><path d="M193.591 89.477l-106.84 118.69H43.438L29 174.876l23.1-23.159 12.994 14.474-8.662 13.027c0-.965-1.444-5.789-2.888-7.237-1.444-1.447-5.775-2.895-7.219 2.895-1.443 5.79 3.37 13.992 7.22 18.817h24.543l-12.994-20.264h27.432l-15.881-21.712h34.65L93.97 128.558h37.538l-17.325-23.159h34.651l-17.326-23.16h28.876V61.977H93.97L89.639 76.45 73.757 59.08c4.331-5.306 15.304-15.921 24.544-15.921h62.083l33.207 46.318zm89.514 0l106.84 118.69h43.314l14.437-33.291-23.1-23.159-12.994 14.474 8.663 13.027c0-.965 1.443-5.789 2.887-7.237 1.444-1.447 5.775-2.895 7.219 2.895s-3.369 13.992-7.219 18.817h-24.544l12.994-20.264H384.17l15.882-21.712h-34.651l17.325-23.159h-37.538l17.325-23.159h-34.65l17.325-23.16h-28.876V61.977h66.414l4.332 14.474 15.881-17.37c-4.331-5.306-15.304-15.921-24.544-15.921h-62.083l-33.207 46.318zm-44.757 46.318h-7.219l-5.775-13.027-60.639 62.24-23.1-28.949h34.651l-17.326-20.264h33.207l-10.106-17.369h25.988l-10.107-18.817h33.207V73.555c0-6.948-11.55-16.404-17.325-20.264l-8.663 10.132 4.332 4.343 4.331-4.343 8.663 8.685-8.663 11.58-20.213-20.265 20.213-21.711 17.325 13.026-8.662-20.264L238.348 20l15.882 14.474-8.663 20.265 17.325-13.027 20.213 21.711-20.213 20.264-8.662-11.58 8.662-8.684 4.332 4.343 4.331-4.343-8.663-10.132c-5.775 3.86-17.325 13.317-17.325 20.264V99.61h33.207l-10.106 18.817h25.988l-10.107 17.369h33.207l-17.325 20.264h34.65l-23.1 28.949-60.639-62.24-5.775 13.027h-7.219z" fill="url(#paint11_linear_237_10956)"/><path d="M1552.59 89.477l-106.84 118.69h-43.31L1388 174.876l23.1-23.159 12.99 14.474-8.66 13.027c0-.965-1.44-5.789-2.89-7.237-1.44-1.447-5.77-2.895-7.21 2.895-1.45 5.79 3.36 13.992 7.21 18.817h24.55l-13-20.264h27.44l-15.89-21.712h34.66l-17.33-23.159h37.54l-17.33-23.159h34.65l-17.32-23.16h28.87V61.977h-66.41l-4.33 14.474-15.88-17.37c4.33-5.306 15.3-15.921 24.54-15.921h62.08l33.21 46.318zm89.52 0l106.84 118.69h43.31l14.44-33.291-23.1-23.159-13 14.474 8.66 13.027c0-.965 1.45-5.789 2.89-7.237 1.45-1.447 5.78-2.895 7.22 2.895 1.44 5.79-3.37 13.992-7.22 18.817h-24.54l12.99-20.264h-27.43l15.88-21.712h-34.65l17.33-23.159h-37.54l17.32-23.159h-34.65l17.33-23.16h-28.88V61.977h66.42l4.33 14.474 15.88-17.37c-4.33-5.306-15.3-15.921-24.55-15.921h-62.08l-33.2 46.318zm-44.76 46.318h-7.22l-5.78-13.027-60.63 62.24-23.11-28.949h34.66l-17.33-20.264h33.21l-10.11-17.369h25.99l-10.11-18.817h33.21V73.555c0-6.948-11.55-16.404-17.33-20.264l-8.66 10.132 4.33 4.343 4.33-4.343 8.67 8.685-8.67 11.58-20.21-20.265 20.21-21.711 17.33 13.026-8.66-20.264L1597.35 20l15.88 14.474-8.66 20.265 17.32-13.027 20.22 21.711-20.22 20.264-8.66-11.58 8.66-8.684 4.33 4.343 4.34-4.343-8.67-10.132c-5.77 3.86-17.32 13.317-17.32 20.264V99.61h33.2l-10.1 18.817h25.99l-10.11 17.369h33.21l-17.33 20.264h34.65l-23.1 28.949-60.64-62.24-5.77 13.027h-7.22z" fill="url(#paint12_linear_237_10956)"/><path d="M372.591 304.295l-106.84-118.69h-43.313L208 218.896l23.1 23.159 12.994-14.474-8.662-13.027c0 .965-1.444 5.79-2.888 7.237s-5.775 2.895-7.219-2.895c-1.443-5.79 3.369-13.992 7.219-18.817h24.544l-12.994 20.265h27.432l-15.881 21.711h34.65l-17.325 23.159h37.538l-17.325 23.159h34.651l-17.326 23.159h28.876v20.264H272.97l-4.331-14.474-15.882 17.369c4.331 5.308 15.304 15.922 24.544 15.922h62.083l33.207-46.318zm89.514 0l106.84-118.69h43.314l14.437 33.291-23.1 23.159-12.994-14.474 8.663-13.027c0 .965 1.443 5.79 2.887 7.237s5.775 2.895 7.219-2.895-3.369-13.992-7.219-18.817h-24.544l12.994 20.265H563.17l15.882 21.711h-34.651l17.325 23.159h-37.538l17.325 23.159h-34.65l17.325 23.159h-28.876v20.264h66.414l4.332-14.474 15.881 17.369c-4.331 5.308-15.304 15.922-24.544 15.922h-62.083l-33.207-46.318zm-44.757-46.318h-7.219l-5.775 13.027-60.639-62.24-23.1 28.949h34.651l-17.326 20.264h33.207l-10.106 17.369h25.988l-10.107 18.817h33.207v26.054c0 6.948-11.55 16.404-17.325 20.264l-8.663-10.132 4.332-4.342 4.331 4.342 8.663-8.685-8.663-11.579-20.213 20.264 20.213 21.712 17.325-13.027-8.662 20.264 15.881 14.474 15.882-14.474-8.663-20.264 17.325 13.027 20.213-21.712-20.213-20.264-8.662 11.579 8.662 8.685 4.332-4.342 4.331 4.342-8.663 10.132c-5.775-3.86-17.325-13.316-17.325-20.264v-26.054h33.207l-10.106-18.817h25.988l-10.107-17.369h33.207l-17.325-20.264h34.65l-23.1-28.949-60.639 62.24-5.775-13.027h-7.219z" fill="url(#paint13_linear_237_10956)"/><path d="M830.646 265.292L629.648 42h-81.486L521 104.631l43.459 43.569 24.446-27.231-16.297-24.507c0 1.815-2.717 10.892-5.433 13.615-2.716 2.723-10.864 5.446-13.581-5.446-2.716-10.892 6.338-26.323 13.581-35.4h46.175l-24.445 38.123h51.607L610.634 148.2h65.189l-32.594 43.569h70.621l-32.595 43.57h65.189l-32.594 43.569h54.324v38.123H643.229L635.08 289.8l-29.878 32.677c8.148 9.985 28.792 29.954 46.175 29.954h116.797l62.472-87.139zm168.404 0L1200.05 42h81.48l27.17 62.631-43.46 43.569-24.45-27.231 16.3-24.507c0 1.815 2.71 10.892 5.43 13.615 2.72 2.723 10.87 5.446 13.58-5.446 2.72-10.892-6.34-26.323-13.58-35.4h-46.17l24.44 38.123h-51.61l29.88 40.846h-65.19l32.6 43.569h-70.62l32.59 43.57h-65.19l32.6 43.569h-54.33v38.123h124.95l8.15-27.231 29.87 32.677c-8.14 9.985-28.79 29.954-46.17 29.954h-116.8l-62.47-87.139zm-84.202-87.138h-13.581l-10.865 24.508-114.08-117.093-43.459 54.462h65.189l-32.595 38.123h62.473l-19.013 32.677h48.891l-19.013 35.4h62.472v49.015c0 13.071-21.729 30.862-32.594 38.123l-16.297-19.061 8.148-8.169 8.149 8.169 16.297-16.339-16.297-21.784-38.027 38.123 38.027 40.846 32.594-24.508-16.297 38.123L914.848 396l29.878-27.231-16.297-38.123 32.594 24.508 38.027-40.846-38.027-38.123-16.297 21.784 16.297 16.339 8.149-8.169 8.149 8.169-16.298 19.061c-10.864-7.261-32.594-25.052-32.594-38.123v-49.015h62.473l-19.014-35.4h48.892l-19.01-32.677h62.47l-32.6-38.123h65.19l-43.46-54.462-114.076 117.093-10.865-24.508h-13.581z" fill="url(#paint14_linear_237_10956)"/></g><g opacity=".1" fill-rule="evenodd" clip-rule="evenodd"><path d="M1383.59 294.295l-106.84-118.69h-43.31L1219 208.896l23.1 23.159 12.99-14.474-8.66-13.027c0 .965-1.44 5.789-2.89 7.237-1.44 1.447-5.77 2.895-7.21-2.895-1.45-5.79 3.36-13.992 7.21-18.817h24.55l-13 20.264h27.44l-15.89 21.712h34.66l-17.33 23.159h37.54l-17.33 23.159h34.65l-17.32 23.159h28.87v20.264h-66.41l-4.33-14.474-15.88 17.369c4.33 5.307 15.3 15.922 24.54 15.922h62.08l33.21-46.318zm89.52 0l106.84-118.69h43.31l14.44 33.291-23.1 23.159-13-14.474 8.66-13.027c0 .965 1.45 5.789 2.89 7.237 1.45 1.447 5.78 2.895 7.22-2.895 1.44-5.79-3.37-13.992-7.22-18.817h-24.54l12.99 20.264h-27.43l15.88 21.712h-34.65l17.33 23.159h-37.54l17.32 23.159h-34.65l17.33 23.159h-28.88v20.264h66.42l4.33-14.474 15.88 17.369c-4.33 5.307-15.3 15.922-24.55 15.922h-62.08l-33.2-46.318zm-44.76-46.318h-7.22l-5.78 13.027-60.63-62.24-23.11 28.949h34.66l-17.33 20.264h33.21l-10.11 17.369h25.99l-10.11 18.817h33.21v26.054c0 6.947-11.55 16.404-17.33 20.264l-8.66-10.132 4.33-4.343 4.33 4.343 8.67-8.685-8.67-11.579-20.21 20.264 20.21 21.711 17.33-13.027-8.66 20.265 15.88 14.474 15.88-14.474-8.66-20.265 17.32 13.027 20.22-21.711-20.22-20.264-8.66 11.579 8.66 8.685 4.33-4.343 4.34 4.343-8.67 10.132c-5.77-3.86-17.32-13.317-17.32-20.264v-26.054h33.2l-10.1-18.817h25.99l-10.11-17.369h33.21l-17.33-20.264h34.65l-23.1-28.949-60.64 62.24-5.77-13.027h-7.22z" fill="url(#paint15_linear_237_10956)"/><path d="M203.591 79.477l-106.84 118.69H53.438L39 164.876l23.1-23.159 12.994 14.474-8.662 13.027c0-.965-1.444-5.789-2.888-7.237-1.444-1.447-5.775-2.895-7.219 2.895-1.443 5.79 3.37 13.992 7.22 18.817h24.543l-12.994-20.264h27.432l-15.881-21.712h34.65l-17.325-23.159h37.538l-17.325-23.16h34.651L141.508 72.24h28.876V51.976H103.97L99.639 66.45 83.757 49.08c4.331-5.306 15.304-15.921 24.544-15.921h62.083l33.207 46.318zm89.514 0l106.84 118.69h43.314l14.437-33.291-23.1-23.159-12.994 14.474 8.663 13.027c0-.965 1.443-5.789 2.887-7.237 1.444-1.447 5.775-2.895 7.219 2.895s-3.369 13.992-7.219 18.817h-24.544l12.994-20.264H394.17l15.882-21.712h-34.651l17.325-23.159h-37.538l17.325-23.16h-34.65l17.325-23.158h-28.876V51.976h66.414l4.332 14.474 15.881-17.37c-4.331-5.306-15.304-15.921-24.544-15.921h-62.083l-33.207 46.318zm-44.757 46.318h-7.219l-5.775-13.027-60.639 62.24-23.1-28.949h34.651l-17.326-20.264h33.207l-10.106-17.369h25.988l-10.107-18.817h33.207V63.555c0-6.947-11.55-16.404-17.325-20.264l-8.663 10.132 4.332 4.343 4.331-4.343 8.663 8.685-8.663 11.58-20.213-20.265 20.213-21.711 17.325 13.027-8.662-20.265L248.348 10l15.882 14.474-8.663 20.265 17.325-13.027 20.213 21.711-20.213 20.264-8.662-11.58 8.662-8.684 4.332 4.343 4.331-4.343-8.663-10.132c-5.775 3.86-17.325 13.317-17.325 20.264V89.61h33.207l-10.106 18.817h25.988l-10.107 17.369h33.207l-17.325 20.264h34.65l-23.1 28.949-60.639-62.24-5.775 13.027h-7.219z" fill="url(#paint16_linear_237_10956)"/><path d="M1562.59 79.477l-106.84 118.69h-43.31L1398 164.876l23.1-23.159 12.99 14.474-8.66 13.027c0-.965-1.44-5.789-2.89-7.237-1.44-1.447-5.77-2.895-7.21 2.895-1.45 5.79 3.36 13.992 7.21 18.817h24.55l-13-20.264h27.44l-15.89-21.712h34.66l-17.33-23.159h37.54l-17.33-23.16h34.65l-17.32-23.158h28.87V51.976h-66.41l-4.33 14.474-15.88-17.37c4.33-5.306 15.3-15.921 24.54-15.921h62.08l33.21 46.318zm89.52 0l106.84 118.69h43.31l14.44-33.291-23.1-23.159-13 14.474 8.66 13.027c0-.965 1.45-5.789 2.89-7.237 1.45-1.447 5.78-2.895 7.22 2.895 1.44 5.79-3.37 13.992-7.22 18.817h-24.54l12.99-20.264h-27.43l15.88-21.712h-34.65l17.33-23.159h-37.54l17.32-23.16h-34.65l17.33-23.158h-28.88V51.976h66.42l4.33 14.474 15.88-17.37c-4.33-5.306-15.3-15.921-24.55-15.921h-62.08l-33.2 46.318zm-44.76 46.318h-7.22l-5.78-13.027-60.63 62.24-23.11-28.949h34.66l-17.33-20.264h33.21l-10.11-17.369h25.99l-10.11-18.817h33.21V63.555c0-6.947-11.55-16.404-17.33-20.264l-8.66 10.132 4.33 4.343 4.33-4.343 8.67 8.685-8.67 11.58-20.21-20.265 20.21-21.711 17.33 13.027-8.66-20.265L1607.35 10l15.88 14.474-8.66 20.265 17.32-13.027 20.22 21.711-20.22 20.264-8.66-11.58 8.66-8.684 4.33 4.343 4.34-4.343-8.67-10.132c-5.77 3.86-17.32 13.317-17.32 20.264V89.61h33.2l-10.1 18.817h25.99l-10.11 17.369h33.21l-17.33 20.264h34.65l-23.1 28.949-60.64-62.24-5.77 13.027h-7.22z" fill="url(#paint17_linear_237_10956)"/><path d="M382.591 294.295l-106.84-118.69h-43.313L218 208.896l23.1 23.159 12.994-14.474-8.662-13.027c0 .965-1.444 5.79-2.888 7.237s-5.775 2.895-7.219-2.895c-1.443-5.79 3.369-13.992 7.219-18.817h24.544l-12.994 20.265h27.432l-15.881 21.711h34.65l-17.325 23.159h37.538l-17.325 23.159h34.651l-17.326 23.159h28.876v20.264H282.97l-4.331-14.474-15.882 17.369c4.331 5.308 15.304 15.922 24.544 15.922h62.083l33.207-46.318zm89.514 0l106.84-118.69h43.314l14.437 33.291-23.1 23.159-12.994-14.474 8.663-13.027c0 .965 1.443 5.79 2.887 7.237s5.775 2.895 7.219-2.895-3.369-13.992-7.219-18.817h-24.544l12.994 20.265H573.17l15.882 21.711h-34.651l17.325 23.159h-37.538l17.325 23.159h-34.65l17.325 23.159h-28.876v20.264h66.414l4.332-14.474 15.881 17.369c-4.331 5.308-15.304 15.922-24.544 15.922h-62.083l-33.207-46.318zm-44.757-46.318h-7.219l-5.775 13.027-60.639-62.24-23.1 28.949h34.651l-17.326 20.264h33.207l-10.106 17.369h25.988l-10.107 18.817h33.207v26.054c0 6.948-11.55 16.404-17.325 20.264l-8.663-10.132 4.332-4.342 4.331 4.342 8.663-8.685-8.663-11.579-20.213 20.264 20.213 21.712 17.325-13.027-8.662 20.264 15.881 14.474 15.882-14.474-8.663-20.264 17.325 13.027 20.213-21.712-20.213-20.264-8.662 11.579 8.662 8.685 4.332-4.342 4.331 4.342-8.663 10.132c-5.775-3.86-17.325-13.316-17.325-20.264v-26.054h33.207l-10.106-18.817h25.988l-10.107-17.369h33.207l-17.325-20.264h34.65l-23.1-28.949-60.639 62.24-5.775-13.027h-7.219z" fill="url(#paint18_linear_237_10956)"/><path d="M840.646 255.292L639.648 32h-81.486L531 94.63l43.459 43.57 24.446-27.231-16.297-24.507c0 1.815-2.717 10.892-5.433 13.615-2.716 2.723-10.864 5.446-13.581-5.446-2.716-10.892 6.338-26.323 13.581-35.4h46.175l-24.445 38.123h51.607L620.634 138.2h65.189l-32.594 43.569h70.621l-32.595 43.57h65.189l-32.594 43.569h54.324v38.123H653.229L645.08 279.8l-29.878 32.677c8.148 9.985 28.792 29.954 46.175 29.954h116.797l62.472-87.139zm168.404 0L1210.05 32h81.48l27.17 62.63-43.46 43.57-24.45-27.231 16.3-24.507c0 1.815 2.71 10.892 5.43 13.615 2.72 2.723 10.87 5.446 13.58-5.446 2.72-10.892-6.34-26.323-13.58-35.4h-46.17l24.44 38.123h-51.61l29.88 40.846h-65.19l32.6 43.569h-70.62l32.59 43.57h-65.19l32.6 43.569h-54.33v38.123h124.95l8.15-27.231 29.87 32.677c-8.14 9.985-28.79 29.954-46.17 29.954h-116.8l-62.47-87.139zm-84.202-87.138h-13.581l-10.865 24.508-114.08-117.093-43.459 54.462h65.189l-32.595 38.123h62.473l-19.013 32.677h48.891l-19.013 35.4h62.472v49.015c0 13.071-21.729 30.862-32.594 38.123l-16.297-19.061 8.148-8.169 8.149 8.169 16.297-16.339-16.297-21.784-38.027 38.123 38.027 40.846 32.594-24.508-16.297 38.123L924.848 386l29.878-27.231-16.297-38.123 32.594 24.508 38.027-40.846-38.027-38.123-16.297 21.784 16.297 16.339 8.149-8.169 8.149 8.169-16.298 19.061c-10.864-7.261-32.594-25.052-32.594-38.123v-49.015h62.471l-19.012-35.4h48.892l-19.01-32.677h62.47l-32.6-38.123h65.19l-43.46-54.462-114.076 117.093-10.865-24.508h-13.581z" fill="url(#paint19_linear_237_10956)"/></g><g opacity=".1" fill-rule="evenodd" clip-rule="evenodd"><path d="M1393.59 284.295l-106.84-118.69h-43.31L1229 198.896l23.1 23.159 12.99-14.474-8.66-13.027c0 .965-1.44 5.789-2.89 7.237-1.44 1.447-5.77 2.895-7.21-2.895-1.45-5.79 3.36-13.992 7.21-18.817h24.55l-13 20.264h27.44l-15.89 21.712h34.66l-17.33 23.159h37.54l-17.33 23.159h34.65l-17.32 23.159h28.87v20.264h-66.41l-4.33-14.474-15.88 17.369c4.33 5.307 15.3 15.922 24.54 15.922h62.08l33.21-46.318zm89.52 0l106.84-118.69h43.31l14.44 33.291-23.1 23.159-13-14.474 8.66-13.027c0 .965 1.45 5.789 2.89 7.237 1.45 1.447 5.78 2.895 7.22-2.895 1.44-5.79-3.37-13.992-7.22-18.817h-24.54l12.99 20.264h-27.43l15.88 21.712h-34.65l17.33 23.159h-37.54l17.32 23.159h-34.65l17.33 23.159h-28.88v20.264h66.42l4.33-14.474 15.88 17.369c-4.33 5.307-15.3 15.922-24.55 15.922h-62.08l-33.2-46.318zm-44.76-46.318h-7.22l-5.78 13.027-60.63-62.24-23.11 28.949h34.66l-17.33 20.264h33.21l-10.11 17.369h25.99l-10.11 18.817h33.21v26.054c0 6.947-11.55 16.404-17.33 20.264l-8.66-10.132 4.33-4.343 4.33 4.343 8.67-8.685-8.67-11.579-20.21 20.264 20.21 21.711 17.33-13.027-8.66 20.265 15.88 14.474 15.88-14.474-8.66-20.265 17.32 13.027 20.22-21.711-20.22-20.264-8.66 11.579 8.66 8.685 4.33-4.343 4.34 4.343-8.67 10.132c-5.77-3.86-17.32-13.317-17.32-20.264v-26.054h33.2l-10.1-18.817h25.99l-10.11-17.369h33.21l-17.33-20.264h34.65l-23.1-28.949-60.64 62.24-5.77-13.027h-7.22z" fill="url(#paint20_linear_237_10956)"/><path d="M213.591 69.477l-106.84 118.69H63.438L49 154.876l23.1-23.159 12.994 14.474-8.662 13.027c0-.965-1.444-5.789-2.888-7.237-1.444-1.447-5.775-2.895-7.219 2.895-1.443 5.79 3.37 13.992 7.22 18.817h24.543l-12.994-20.264h27.432l-15.881-21.712h34.65l-17.325-23.159h37.538l-17.325-23.16h34.651L151.508 62.24h28.876V41.976H113.97l-4.331 14.474-15.882-17.37c4.331-5.306 15.304-15.921 24.544-15.921h62.083l33.207 46.318zm89.514 0l106.84 118.69h43.314l14.437-33.291-23.1-23.159-12.994 14.474 8.663 13.027c0-.965 1.443-5.789 2.887-7.237 1.444-1.447 5.775-2.895 7.219 2.895s-3.369 13.992-7.219 18.817h-24.544l12.994-20.264H404.17l15.882-21.712h-34.651l17.325-23.159h-37.538l17.325-23.16h-34.65l17.325-23.158h-28.876V41.976h66.414l4.332 14.474 15.881-17.37c-4.331-5.306-15.304-15.921-24.544-15.921h-62.083l-33.207 46.318zm-44.757 46.318h-7.219l-5.775-13.027-60.639 62.24-23.1-28.949h34.651l-17.326-20.264h33.207l-10.106-17.37h25.988L217.922 79.61h33.207V53.555c0-6.947-11.55-16.404-17.325-20.264l-8.663 10.132 4.332 4.343 4.331-4.343 8.663 8.685-8.663 11.58-20.213-20.265 20.213-21.711 17.325 13.027-8.662-20.265L258.348 0l15.882 14.474-8.663 20.265 17.325-13.027 20.213 21.711-20.213 20.264-8.662-11.58 8.662-8.684 4.332 4.343 4.331-4.343-8.663-10.132c-5.775 3.86-17.325 13.317-17.325 20.264V79.61h33.207l-10.106 18.817h25.988l-10.107 17.369h33.207l-17.325 20.264h34.65l-23.1 28.949-60.639-62.24-5.775 13.027h-7.219z" fill="url(#paint21_linear_237_10956)"/><path d="M1572.59 69.477l-106.84 118.69h-43.31L1408 154.876l23.1-23.159 12.99 14.474-8.66 13.027c0-.965-1.44-5.789-2.89-7.237-1.44-1.447-5.77-2.895-7.21 2.895-1.45 5.79 3.36 13.992 7.21 18.817h24.55l-13-20.264h27.44l-15.89-21.712h34.66l-17.33-23.159h37.54l-17.33-23.16h34.65l-17.32-23.158h28.87V41.976h-66.41l-4.33 14.474-15.88-17.37c4.33-5.306 15.3-15.921 24.54-15.921h62.08l33.21 46.318zm89.52 0l106.84 118.69h43.31l14.44-33.291-23.1-23.159-13 14.474 8.66 13.027c0-.965 1.45-5.789 2.89-7.237 1.45-1.447 5.78-2.895 7.22 2.895 1.44 5.79-3.37 13.992-7.22 18.817h-24.54l12.99-20.264h-27.43l15.88-21.712h-34.65l17.33-23.159h-37.54l17.32-23.16h-34.65l17.33-23.158h-28.88V41.976h66.42l4.33 14.474 15.88-17.37c-4.33-5.306-15.3-15.921-24.55-15.921h-62.08l-33.2 46.318zm-44.76 46.318h-7.22l-5.78-13.027-60.63 62.24-23.11-28.949h34.66l-17.33-20.264h33.21l-10.11-17.37h25.99l-10.11-18.816h33.21V53.555c0-6.947-11.55-16.404-17.33-20.264l-8.66 10.132 4.33 4.343 4.33-4.343 8.67 8.685-8.67 11.58-20.21-20.265 20.21-21.711 17.33 13.027-8.66-20.265L1617.35 0l15.88 14.474-8.66 20.265 17.32-13.027 20.22 21.711-20.22 20.264-8.66-11.58 8.66-8.684 4.33 4.343 4.34-4.343-8.67-10.132c-5.77 3.86-17.32 13.317-17.32 20.264V79.61h33.2l-10.1 18.817h25.99l-10.11 17.369h33.21l-17.33 20.264h34.65l-23.1 28.949-60.64-62.24-5.77 13.027h-7.22z" fill="url(#paint22_linear_237_10956)"/><path d="M392.591 284.295l-106.84-118.69h-43.313L228 198.896l23.1 23.159 12.994-14.474-8.662-13.027c0 .965-1.444 5.79-2.888 7.237s-5.775 2.895-7.219-2.895c-1.443-5.79 3.369-13.992 7.219-18.817h24.544l-12.994 20.265h27.432l-15.881 21.711h34.65l-17.325 23.159h37.538l-17.325 23.159h34.651l-17.326 23.159h28.876v20.264H292.97l-4.331-14.474-15.882 17.369c4.331 5.308 15.304 15.922 24.544 15.922h62.083l33.207-46.318zm89.514 0l106.84-118.69h43.314l14.437 33.291-23.1 23.159-12.994-14.474 8.663-13.027c0 .965 1.443 5.79 2.887 7.237s5.775 2.895 7.219-2.895-3.369-13.992-7.219-18.817h-24.544l12.994 20.265H583.17l15.882 21.711h-34.651l17.325 23.159h-37.538l17.325 23.159h-34.65l17.325 23.159h-28.876v20.264h66.414l4.332-14.474 15.881 17.369c-4.331 5.308-15.304 15.922-24.544 15.922h-62.083l-33.207-46.318zm-44.757-46.318h-7.219l-5.775 13.027-60.639-62.24-23.1 28.949h34.651l-17.326 20.264h33.207l-10.106 17.369h25.988l-10.107 18.817h33.207v26.054c0 6.948-11.55 16.404-17.325 20.264l-8.663-10.132 4.332-4.342 4.331 4.342 8.663-8.685-8.663-11.579-20.213 20.264 20.213 21.712 17.325-13.027-8.662 20.264 15.881 14.474 15.882-14.474-8.663-20.264 17.325 13.027 20.213-21.712-20.213-20.264-8.662 11.579 8.662 8.685 4.332-4.342 4.331 4.342-8.663 10.132c-5.775-3.86-17.325-13.316-17.325-20.264v-26.054h33.207l-10.106-18.817h25.988l-10.107-17.369h33.207l-17.325-20.264h34.65l-23.1-28.949-60.639 62.24-5.775-13.027h-7.219z" fill="url(#paint23_linear_237_10956)"/><path d="M850.646 245.292L649.648 22h-81.486L541 84.63l43.459 43.57 24.446-27.231-16.297-24.507c0 1.815-2.717 10.892-5.433 13.615-2.716 2.723-10.864 5.446-13.581-5.446-2.716-10.892 6.338-26.323 13.581-35.4h46.175l-24.445 38.123h51.607L630.634 128.2h65.189l-32.594 43.569h70.621l-32.595 43.57h65.189l-32.594 43.569h54.324v38.123H663.229L655.08 269.8l-29.878 32.677c8.148 9.985 28.792 29.954 46.175 29.954h116.797l62.472-87.139zm168.404 0L1220.05 22h81.48l27.17 62.63-43.46 43.57-24.45-27.231 16.3-24.507c0 1.815 2.71 10.892 5.43 13.615 2.72 2.723 10.87 5.446 13.58-5.446 2.72-10.892-6.34-26.323-13.58-35.4h-46.17l24.44 38.123h-51.61l29.88 40.846h-65.19l32.6 43.569h-70.62l32.59 43.57h-65.19l32.6 43.569h-54.33v38.123h124.95l8.15-27.231 29.87 32.677c-8.14 9.985-28.79 29.954-46.17 29.954h-116.8l-62.47-87.139zm-84.202-87.138h-13.581l-10.865 24.508-114.08-117.093-43.459 54.462h65.189l-32.595 38.123h62.473l-19.013 32.677h48.891l-19.013 35.4h62.472v49.015c0 13.071-21.729 30.862-32.594 38.123l-16.297-19.061 8.148-8.169 8.149 8.169 16.297-16.339-16.297-21.784-38.027 38.123 38.027 40.846 32.594-24.508-16.297 38.123L934.848 376l29.878-27.231-16.297-38.123 32.594 24.508 38.027-40.846-38.027-38.123-16.297 21.784 16.297 16.339 8.149-8.169 8.149 8.169-16.298 19.061c-10.864-7.261-32.594-25.052-32.594-38.123v-49.015h62.471l-19.012-35.4h48.892l-19.01-32.677h62.47l-32.6-38.123h65.19l-43.46-54.462-114.076 117.093-10.865-24.508h-13.581z" fill="url(#paint24_linear_237_10956)"/></g><path fill-rule="evenodd" clip-rule="evenodd" d="M1344.59 334.295l-106.84-118.69h-43.31L1180 248.896l23.1 23.159 12.99-14.475-8.66-13.027c0 .965-1.44 5.79-2.89 7.238-1.44 1.447-5.77 2.895-7.21-2.895-1.45-5.79 3.36-13.992 7.21-18.817h24.55l-13 20.264h27.44l-15.89 21.712h34.66l-17.33 23.159h37.54l-17.33 23.159h34.65l-17.32 23.159h28.87v20.264h-66.41l-4.33-14.474-15.88 17.369c4.33 5.307 15.3 15.922 24.54 15.922h62.08l33.21-46.318zm89.52 0l106.84-118.69h43.31l14.44 33.291-23.1 23.159-13-14.475 8.66-13.027c0 .965 1.45 5.79 2.89 7.238 1.45 1.447 5.78 2.895 7.22-2.895 1.44-5.79-3.37-13.992-7.22-18.817h-24.54l12.99 20.264h-27.43l15.88 21.712h-34.65l17.33 23.159h-37.54l17.32 23.159h-34.65l17.33 23.159h-28.88v20.264h66.42l4.33-14.474 15.88 17.369c-4.33 5.307-15.3 15.922-24.55 15.922h-62.08l-33.2-46.318zm-44.76-46.318h-7.22l-5.78 13.027-60.63-62.24-23.11 28.949h34.66l-17.33 20.264h33.21l-10.11 17.369h25.99l-10.11 18.817h33.21v26.054c0 6.947-11.55 16.404-17.33 20.264l-8.66-10.132 4.33-4.343 4.33 4.343 8.67-8.685-8.67-11.58-20.21 20.265 20.21 21.711 17.33-13.027-8.66 20.264 15.88 14.475 15.88-14.475-8.66-20.264 17.32 13.027 20.22-21.711-20.22-20.265-8.66 11.58 8.66 8.685 4.33-4.343 4.34 4.343-8.67 10.132c-5.77-3.86-17.32-13.317-17.32-20.264v-26.054h33.2l-10.1-18.817h25.99l-10.11-17.369h33.21l-17.33-20.264h34.65l-23.1-28.949-60.64 62.24-5.77-13.027h-7.22z" fill="url(#paint25_linear_237_10956)"/><path fill-rule="evenodd" clip-rule="evenodd" d="M164.591 119.477l-106.84 118.69H14.438L0 204.876l23.1-23.159 12.994 14.474-8.662 13.027c0-.965-1.444-5.79-2.888-7.237s-5.775-2.895-7.219 2.895c-1.443 5.79 3.37 13.992 7.22 18.817h24.544l-12.995-20.265h27.432l-15.881-21.711h34.65L64.97 158.558h37.538l-17.325-23.159h34.651l-17.326-23.159h28.876V91.976H64.97l-4.331 14.474-15.882-17.37c4.333-5.305 15.304-15.92 24.544-15.92h62.083l33.207 46.318zm89.514 0l106.84 118.69h43.314l14.437-33.291-23.1-23.159-12.994 14.474 8.663 13.027c0-.965 1.443-5.79 2.887-7.237s5.775-2.895 7.219 2.895-3.369 13.992-7.219 18.817h-24.544l12.994-20.265H355.17l15.882-21.711h-34.651l17.325-23.159h-37.538l17.325-23.159h-34.65l17.325-23.159h-28.876V91.976h66.414l4.332 14.474 15.881-17.37c-4.331-5.306-15.304-15.921-24.544-15.921h-62.083l-33.207 46.318zm-44.757 46.318h-7.219l-5.775-13.027-60.639 62.24-23.1-28.949h34.651l-17.326-20.264h33.207l-10.106-17.369h25.988l-10.107-18.817h33.207v-26.054c0-6.948-11.55-16.404-17.325-20.264l-8.663 10.132 4.332 4.342 4.331-4.342 8.663 8.685-8.663 11.579-20.213-20.264 20.213-21.712 17.325 13.027-8.662-20.264L209.348 50l15.882 14.474-8.663 20.264 17.325-13.026 20.213 21.711-20.213 20.264-8.662-11.579 8.662-8.685 4.332 4.342 4.331-4.342-8.663-10.132c-5.775 3.86-17.325 13.316-17.325 20.264v26.054h33.207l-10.106 18.817h25.988l-10.107 17.369h33.207l-17.325 20.264h34.65l-23.1 28.949-60.639-62.24-5.775 13.027h-7.219z" fill="url(#paint26_linear_237_10956)"/><path fill-rule="evenodd" clip-rule="evenodd" d="M1523.59 119.477l-106.84 118.69h-43.31L1359 204.876l23.1-23.159 12.99 14.474-8.66 13.027c0-.965-1.44-5.79-2.89-7.237-1.44-1.447-5.77-2.895-7.21 2.895-1.45 5.79 3.36 13.992 7.21 18.817h24.55l-13-20.265h27.44l-15.89-21.711h34.66l-17.33-23.159h37.54l-17.33-23.159h34.65l-17.32-23.159h28.87V91.976h-66.41l-4.33 14.474-15.88-17.37c4.33-5.306 15.3-15.921 24.54-15.921h62.08l33.21 46.318zm89.52 0l106.84 118.69h43.31l14.44-33.291-23.1-23.159-13 14.474 8.66 13.027c0-.965 1.45-5.79 2.89-7.237 1.45-1.447 5.78-2.895 7.22 2.895 1.44 5.79-3.37 13.992-7.22 18.817h-24.54l12.99-20.265h-27.43l15.88-21.711h-34.65l17.33-23.159h-37.54l17.32-23.159h-34.65l17.33-23.159h-28.88V91.976h66.42l4.33 14.474 15.88-17.37c-4.33-5.306-15.3-15.921-24.55-15.921h-62.08l-33.2 46.318zm-44.76 46.318h-7.22l-5.78-13.027-60.63 62.24-23.11-28.949h34.66l-17.33-20.264h33.21l-10.11-17.369h25.99l-10.11-18.817h33.21v-26.054c0-6.948-11.55-16.404-17.33-20.264l-8.66 10.132 4.33 4.342 4.33-4.342 8.67 8.685-8.67 11.579-20.21-20.264 20.21-21.712 17.33 13.027-8.66-20.264L1568.35 50l15.88 14.474-8.66 20.264 17.32-13.026 20.22 21.711-20.22 20.264-8.66-11.579 8.66-8.685 4.33 4.342 4.34-4.342-8.67-10.132c-5.77 3.86-17.32 13.316-17.32 20.264v26.054h33.2l-10.1 18.817h25.99l-10.11 17.369h33.21l-17.33 20.264h34.65l-23.1 28.949-60.64-62.24-5.77 13.027h-7.22z" fill="url(#paint27_linear_237_10956)"/><path fill-rule="evenodd" clip-rule="evenodd" d="M343.591 334.295l-106.84-118.69h-43.313L179 248.896l23.1 23.159 12.994-14.474-8.662-13.027c0 .965-1.444 5.789-2.888 7.237-1.444 1.447-5.775 2.895-7.219-2.895-1.443-5.79 3.369-13.992 7.219-18.817h24.544l-12.994 20.264h27.432l-15.881 21.712h34.65l-17.325 23.159h37.538l-17.325 23.159h34.651l-17.326 23.159h28.876v20.264H243.97l-4.331-14.474-15.882 17.369c4.331 5.307 15.304 15.922 24.544 15.922h62.083l33.207-46.318zm89.514 0l106.84-118.69h43.314l14.437 33.291-23.1 23.159-12.994-14.474 8.663-13.027c0 .965 1.443 5.789 2.887 7.237 1.444 1.447 5.775 2.895 7.219-2.895s-3.369-13.992-7.219-18.817h-24.544l12.994 20.264H534.17l15.882 21.712h-34.651l17.325 23.159h-37.538l17.325 23.159h-34.65l17.325 23.159h-28.876v20.264h66.414l4.332-14.474 15.881 17.369c-4.331 5.307-15.304 15.922-24.544 15.922h-62.083l-33.207-46.318zm-44.757-46.318h-7.219l-5.775 13.027-60.639-62.24-23.1 28.949h34.651l-17.326 20.264h33.207l-10.106 17.369h25.988l-10.107 18.817h33.207v26.054c0 6.948-11.55 16.404-17.325 20.264l-8.663-10.132 4.332-4.342 4.331 4.342 8.663-8.685-8.663-11.579-20.213 20.264 20.213 21.711 17.325-13.026-8.662 20.264 15.881 14.474 15.882-14.474-8.663-20.264 17.325 13.026 20.213-21.711-20.213-20.264-8.662 11.579 8.662 8.685 4.332-4.342 4.331 4.342-8.663 10.132c-5.775-3.86-17.325-13.316-17.325-20.264v-26.054h33.207l-10.106-18.817h25.988l-10.107-17.369h33.207l-17.325-20.264h34.65l-23.1-28.949-60.639 62.24-5.775-13.027h-7.219z" fill="url(#paint28_linear_237_10956)"/><path fill-rule="evenodd" clip-rule="evenodd" d="M801.646 295.292L600.648 72h-81.486L492 134.631l43.459 43.569 24.446-27.231-16.297-24.507c0 1.815-2.717 10.892-5.433 13.615-2.716 2.723-10.864 5.446-13.581-5.446-2.716-10.893 6.338-26.323 13.581-35.4h46.175l-24.445 38.123h51.607L581.634 178.2h65.189l-32.594 43.569h70.621l-32.595 43.569h65.189l-32.594 43.57h54.324v38.123H614.229L606.08 319.8l-29.878 32.677c8.148 9.985 28.792 29.954 46.175 29.954h116.797l62.472-87.139zm168.404 0L1171.05 72h81.48l27.17 62.631-43.46 43.569-24.45-27.231 16.3-24.507c0 1.815 2.71 10.892 5.43 13.615 2.72 2.723 10.87 5.446 13.58-5.446 2.72-10.893-6.34-26.323-13.58-35.4h-46.17l24.44 38.123h-51.61l29.88 40.846h-65.19l32.6 43.569h-70.62l32.59 43.569h-65.19l32.6 43.57h-54.33v38.123h124.95l8.15-27.231 29.87 32.677c-8.14 9.985-28.79 29.954-46.17 29.954h-116.8l-62.47-87.139zm-84.202-87.138h-13.581l-10.865 24.508-114.08-117.093-43.459 54.462h65.189l-32.595 38.123h62.473l-19.013 32.677h48.891l-19.013 35.4h62.472v49.015c0 13.071-21.729 30.862-32.594 38.123l-16.297-19.061 8.148-8.17 8.149 8.17 16.297-16.339-16.297-21.784-38.027 38.123 38.027 40.846 32.594-24.508-16.297 38.123L885.848 426l29.878-27.231-16.297-38.123 32.594 24.508 38.027-40.846-38.027-38.123-16.297 21.784 16.297 16.339 8.149-8.17 8.149 8.17-16.298 19.061c-10.864-7.261-32.594-25.052-32.594-38.123v-49.015h62.473l-19.014-35.4h48.892l-19.014-32.677h62.474l-32.6-38.123h65.19l-43.46-54.462-114.076 117.093-10.865-24.508h-13.581z" fill="url(#paint29_linear_237_10956)"/><defs><linearGradient id="paint0_linear_237_10956" x1="1398.35" y1="205.605" x2="1398.35" y2="393.772" gradientUnits="userSpaceOnUse"><stop stop-color="#3AC4FA"/><stop offset="1" stop-color="#0394CD"/></linearGradient><linearGradient id="paint1_linear_237_10956" x1="218.348" y1="228.167" x2="218.348" y2="40" gradientUnits="userSpaceOnUse"><stop stop-color="#3AC4FA"/><stop offset="1" stop-color="#0394CD"/></linearGradient><linearGradient id="paint2_linear_237_10956" x1="1577.35" y1="228.167" x2="1577.35" y2="40" gradientUnits="userSpaceOnUse"><stop stop-color="#3AC4FA"/><stop offset="1" stop-color="#0394CD"/></linearGradient><linearGradient id="paint3_linear_237_10956" x1="397.348" y1="205.605" x2="397.348" y2="393.772" gradientUnits="userSpaceOnUse"><stop stop-color="#3AC4FA"/><stop offset="1" stop-color="#0394CD"/></linearGradient><linearGradient id="paint4_linear_237_10956" x1="894.848" y1="62" x2="894.848" y2="416" gradientUnits="userSpaceOnUse"><stop stop-color="#3AC4FA"/><stop offset="1" stop-color="#0394CD"/></linearGradient><linearGradient id="paint5_linear_237_10956" x1="1408.35" y1="195.605" x2="1408.35" y2="383.772" gradientUnits="userSpaceOnUse"><stop stop-color="#3AC4FA"/><stop offset="1" stop-color="#0394CD"/></linearGradient><linearGradient id="paint6_linear_237_10956" x1="228.348" y1="218.167" x2="228.348" y2="30" gradientUnits="userSpaceOnUse"><stop stop-color="#3AC4FA"/><stop offset="1" stop-color="#0394CD"/></linearGradient><linearGradient id="paint7_linear_237_10956" x1="1587.35" y1="218.167" x2="1587.35" y2="30" gradientUnits="userSpaceOnUse"><stop stop-color="#3AC4FA"/><stop offset="1" stop-color="#0394CD"/></linearGradient><linearGradient id="paint8_linear_237_10956" x1="407.348" y1="195.605" x2="407.348" y2="383.772" gradientUnits="userSpaceOnUse"><stop stop-color="#3AC4FA"/><stop offset="1" stop-color="#0394CD"/></linearGradient><linearGradient id="paint9_linear_237_10956" x1="904.848" y1="52" x2="904.848" y2="406" gradientUnits="userSpaceOnUse"><stop stop-color="#3AC4FA"/><stop offset="1" stop-color="#0394CD"/></linearGradient><linearGradient id="paint10_linear_237_10956" x1="1418.35" y1="185.605" x2="1418.35" y2="373.772" gradientUnits="userSpaceOnUse"><stop stop-color="#3AC4FA"/><stop offset="1" stop-color="#0394CD"/></linearGradient><linearGradient id="paint11_linear_237_10956" x1="238.348" y1="208.167" x2="238.348" y2="20" gradientUnits="userSpaceOnUse"><stop stop-color="#3AC4FA"/><stop offset="1" stop-color="#0394CD"/></linearGradient><linearGradient id="paint12_linear_237_10956" x1="1597.35" y1="208.167" x2="1597.35" y2="20" gradientUnits="userSpaceOnUse"><stop stop-color="#3AC4FA"/><stop offset="1" stop-color="#0394CD"/></linearGradient><linearGradient id="paint13_linear_237_10956" x1="417.348" y1="185.605" x2="417.348" y2="373.772" gradientUnits="userSpaceOnUse"><stop stop-color="#3AC4FA"/><stop offset="1" stop-color="#0394CD"/></linearGradient><linearGradient id="paint14_linear_237_10956" x1="914.848" y1="42" x2="914.848" y2="396" gradientUnits="userSpaceOnUse"><stop stop-color="#3AC4FA"/><stop offset="1" stop-color="#0394CD"/></linearGradient><linearGradient id="paint15_linear_237_10956" x1="1428.35" y1="175.605" x2="1428.35" y2="363.772" gradientUnits="userSpaceOnUse"><stop stop-color="#3AC4FA"/><stop offset="1" stop-color="#0394CD"/></linearGradient><linearGradient id="paint16_linear_237_10956" x1="248.348" y1="198.167" x2="248.348" y2="10" gradientUnits="userSpaceOnUse"><stop stop-color="#3AC4FA"/><stop offset="1" stop-color="#0394CD"/></linearGradient><linearGradient id="paint17_linear_237_10956" x1="1607.35" y1="198.167" x2="1607.35" y2="10" gradientUnits="userSpaceOnUse"><stop stop-color="#3AC4FA"/><stop offset="1" stop-color="#0394CD"/></linearGradient><linearGradient id="paint18_linear_237_10956" x1="427.348" y1="175.605" x2="427.348" y2="363.772" gradientUnits="userSpaceOnUse"><stop stop-color="#3AC4FA"/><stop offset="1" stop-color="#0394CD"/></linearGradient><linearGradient id="paint19_linear_237_10956" x1="924.848" y1="32" x2="924.848" y2="386" gradientUnits="userSpaceOnUse"><stop stop-color="#3AC4FA"/><stop offset="1" stop-color="#0394CD"/></linearGradient><linearGradient id="paint20_linear_237_10956" x1="1438.35" y1="165.605" x2="1438.35" y2="353.772" gradientUnits="userSpaceOnUse"><stop stop-color="#3AC4FA"/><stop offset="1" stop-color="#0394CD"/></linearGradient><linearGradient id="paint21_linear_237_10956" x1="258.348" y1="188.167" x2="258.348" y2="0" gradientUnits="userSpaceOnUse"><stop stop-color="#3AC4FA"/><stop offset="1" stop-color="#0394CD"/></linearGradient><linearGradient id="paint22_linear_237_10956" x1="1617.35" y1="188.167" x2="1617.35" y2="0" gradientUnits="userSpaceOnUse"><stop stop-color="#3AC4FA"/><stop offset="1" stop-color="#0394CD"/></linearGradient><linearGradient id="paint23_linear_237_10956" x1="437.348" y1="165.605" x2="437.348" y2="353.772" gradientUnits="userSpaceOnUse"><stop stop-color="#3AC4FA"/><stop offset="1" stop-color="#0394CD"/></linearGradient><linearGradient id="paint24_linear_237_10956" x1="934.848" y1="22" x2="934.848" y2="376" gradientUnits="userSpaceOnUse"><stop stop-color="#3AC4FA"/><stop offset="1" stop-color="#0394CD"/></linearGradient><linearGradient id="paint25_linear_237_10956" x1="1389.35" y1="215.605" x2="1389.35" y2="403.772" gradientUnits="userSpaceOnUse"><stop stop-color="#3AC4FA"/><stop offset="1" stop-color="#0394CD"/></linearGradient><linearGradient id="paint26_linear_237_10956" x1="209.348" y1="238.167" x2="209.348" y2="50" gradientUnits="userSpaceOnUse"><stop stop-color="#3AC4FA"/><stop offset="1" stop-color="#0394CD"/></linearGradient><linearGradient id="paint27_linear_237_10956" x1="1568.35" y1="238.167" x2="1568.35" y2="50" gradientUnits="userSpaceOnUse"><stop stop-color="#3AC4FA"/><stop offset="1" stop-color="#0394CD"/></linearGradient><linearGradient id="paint28_linear_237_10956" x1="388.348" y1="215.605" x2="388.348" y2="403.772" gradientUnits="userSpaceOnUse"><stop stop-color="#3AC4FA"/><stop offset="1" stop-color="#0394CD"/></linearGradient><linearGradient id="paint29_linear_237_10956" x1="885.848" y1="72" x2="885.848" y2="426" gradientUnits="userSpaceOnUse"><stop stop-color="#3AC4FA"/><stop offset="1" stop-color="#0394CD"/></linearGradient></defs></svg>