<svg width="216" height="399" fill="none" xmlns="http://www.w3.org/2000/svg"><path d="M30.248 213.071c-54.589 54.634-21.833 185.754-5.458 185.754 16.376 0 5.459-81.95 49.129-120.194 43.67-38.243 73.997-22.645 73.997-51.827 0-31.129-24.868-8.27-41.244 2.657s-27.294-5.463-10.918-16.39c16.377-10.927 120.093-49.17 120.094-98.341 0-37.485-10.918-43.706-27.294-43.706-16.377 0-27.294 10.926-27.294 27.317 0 16.39-16.377 16.389-16.377 0C144.883 81.95 133.966 0 68.46 0 2.955 0 19.332 76.487 35.708 60.097c16.376-16.39 70.964-5.464 70.964 54.633s-27.295 49.171-76.424 98.341z" fill="#0394CD"/></svg>