<svg width="216" height="399" fill="none" xmlns="http://www.w3.org/2000/svg"><path d="M185.6 213.071c54.588 54.634 21.833 185.754 5.457 185.754-16.375 0-5.458-81.95-49.128-120.194-43.67-38.243-73.997-22.645-73.997-51.827 0-31.129 24.867-8.27 41.244 2.657 16.376 10.927 27.294-5.463 10.917-16.39C103.717 202.144 0 163.901 0 114.73c0-37.485 10.918-43.706 27.294-43.706S54.588 81.95 54.588 98.34s16.376 16.389 16.376 0C70.964 81.95 81.882 0 147.387 0c65.506 0 49.129 76.487 32.753 60.097-16.376-16.39-70.964-5.464-70.964 54.633s27.294 49.171 76.424 98.341z" fill="#70C043"/></svg>