<svg width="292" height="292" fill="none" xmlns="http://www.w3.org/2000/svg"><path d="M74.898 113.43l-.024.024-.049.037-.122.097a24.44 24.44 0 00-1.533 1.265 61.09 61.09 0 00-3.674 3.541c-2.92 3.078-6.667 7.653-10.183 13.773-7.082 12.349-13.031 30.757-9.685 55.37 3.297 24.297 13.505 44.603 30.757 58.765 17.204 14.113 40.491 21.365 68.657 21.365 29.041 0 52.231-10.889 67.573-29.565 15.209-18.506 21.998-43.752 20.38-71.345-1.558-26.475-15.975-46.562-28.714-64.301l-3.638-5.074c-13.894-19.613-24.856-37.68-22.192-62.962a9.117 9.117 0 00-2.291-7.065 9.125 9.125 0 00-6.785-3.021c-4.648 0-9.977 1.435-15.111 3.6a79.09 79.09 0 00-16.705 9.734c-11.254 8.492-22.508 21.292-28.506 38.398-5.986 17.058-2.945 33.312 1.435 45.151 2.884 7.774-.243 15.451-4.951 17.69a8.59 8.59 0 01-11.279-3.772l-9.806-18.627a9.131 9.131 0 00-6.064-4.657 9.127 9.127 0 00-7.478 1.591" fill="#F7872B"/></svg>