<svg width="267" height="359" fill="none" xmlns="http://www.w3.org/2000/svg"><path d="M189.308 294.439c0 37.639 19.252 64.278 21.244 68.254 1.991 3.976.663 11.928-8.631 9.277-9.294-2.651-27.883-35.121-27.883-74.218 0-16.433 5.311-43.514 8.631-55 4.78-21.735-8.631-33.796-17.261-37.772-8.631-3.976-32.115-4.638-32.53 1.988-.415 6.627-5.975 33.133-25.891 33.133-19.917 0-24.337-20.566-23.236-46.386 1.328-31.145 41.16-36.446 73.026-24.518 25.493 9.542 34.522 37.771 35.85 49.699l.028-.046c16.161-26.738 46.443-76.84 46.443-108.63 0-39.76-25.227-69.579-60.413-69.579-35.185 0-51.118 13.253-51.118 27.17 0 13.915 17.645 18.857 23.236 39.759 5.996 22.42-9.295 37.109-29.211 37.109-19.916 0-21.244-25.181-34.522-25.181-13.277 0-19.252 13.915-23.235 21.867-3.984 7.952-11.95 8.615-21.909 3.314-9.958-5.302-12.613.662-20.58-3.314-7.966-3.976 0-10.602-5.31-17.229-5.312-6.626-17.262-9.94-15.934-16.566 1.328-6.627 17.925-23.856 23.9-31.145 5.975-7.29 8.63-19.217-5.975-23.193C3.422 49.256.102 31.364.102 25.4.102 19.436 5.7 0 30.994 0 56.289 0 66.49 12.147 71.137 14.798c4.647 2.65 11.95 5.3 25.228 0 13.277-5.302 33.193-11.928 65.06-11.928 31.866 0 104.892 25.18 104.892 100.724 0 75.543-77.009 143.796-77.009 190.845z" fill="#fff"/></svg>