<svg width="562" height="502" fill="none" xmlns="http://www.w3.org/2000/svg"><path d="M63.373 52.219c63.33 0 102.064 47.05 113.515 70.575-3.036-1.582-6.276-3.431-9.746-5.412-17.018-9.714-39.585-22.595-70.91-22.595-19.146 0-28.187 6.448-37.09 12.797-8.634 6.157-17.139 12.222-34.604 12.222-35.473 0-40.327-67.587 38.835-67.587zm321.236 70.575c11.451-23.525 50.186-70.575 113.515-70.575 79.162 0 74.309 67.587 38.835 67.587-17.465 0-25.969-6.065-34.604-12.222-8.903-6.349-17.944-12.797-37.09-12.797-31.325 0-53.892 12.881-70.909 22.595-3.471 1.981-6.711 3.83-9.747 5.412z" fill="#EDEDED"/><path d="M280.749 0c-17.294 14.633-46.106 54.105-57.709 84.795-14.503 38.363-8.395 80.252 6.108 104.58 14.502 24.327 29.953 81.701 29.953 104.157 0 9.001-8.459 9.468-8.459 0 0-22.924-10.292-69.24-27.602-99.649-17.31-30.409-69.719-80.604-121.649-80.604-51.93 0-60.818 87.953-24.327 87.953 32.809 0 32-26.363 31.502-42.564-.056-1.818-.107-3.508-.107-5.019 0-14.971 79.063 5.146 79.063 40.234 0 16.696-12.182 33.816-24.953 51.763-14.067 19.769-28.848 40.542-28.848 62.856 0 42.573 81.19 65.965 147.028 65.965 65.837 0 147.027-23.392 147.027-65.965 0-22.314-14.781-43.087-28.848-62.856-12.77-17.947-24.953-35.067-24.953-51.763 0-35.088 79.064-55.205 79.064-40.234 0 1.509-.052 3.198-.108 5.015v.003c-.498 16.201-1.307 42.565 31.502 42.565 36.491 0 27.602-87.953-24.327-87.953-51.93 0-104.339 50.195-121.649 80.604-17.31 30.409-27.602 76.725-27.602 99.649 0 9.468-8.458 9.001-8.458 0 0-22.456 15.45-79.83 29.953-104.157 14.503-24.328 20.61-66.217 6.107-104.58C326.855 54.105 298.043 14.633 280.749 0zm-6.627 411.846l-70.898-.002c-1.472 0-2.913.085-4.323.248-21.164 2.44-35.616 22.469-47.229 38.563l-1.51 2.091c-7.473 10.323-13.794 18.539-20.059 18.539-.9 0-1.784-.031-2.652-.089-13.017-.869-22.377-7.916-26.405-10.949-.734-.552-1.29-.971-1.66-1.196 1.088 9.424 5.219 42.949 45.667 42.949s64.695-43.855 67.686-62.248c14.364 34.191 25.147 57.083 68.008 57.083s53.646-22.892 68.01-57.083c2.99 18.393 27.238 62.248 67.686 62.248 40.448 0 44.579-33.525 45.667-42.949-.37.225-.927.644-1.66 1.196-4.296 3.235-14.66 11.038-29.057 11.038-6.683 0-13.429-9.348-21.569-20.63-12.387-17.167-28.005-38.811-51.552-38.811-39.022 0-77.525.002-77.525.002h-6.625z" fill="#EDEDED"/></svg>