<svg width="100" height="62" fill="none" xmlns="http://www.w3.org/2000/svg"><g clip-path="url(#clip0_204_2871)" fill="#fff"><path d="M0 21.113c.03-.338.062-.676.085-1.014.24-3.285 1.267-6.306 3.039-9.068C5.267 7.691 8.17 5.19 11.636 3.33 14.581 1.748 17.727.806 21.044.434c5.48-.614 10.728.22 15.725 2.561 1.952.914 3.758 2.072 5.31 3.596.267.261.515.541.787.83l-4.206 4.654c-.447-.348-.868-.698-1.309-1.02a23.592 23.592 0 00-10.214-4.263c-1.99-.325-3.99-.257-5.978.036-2.681.396-5.183 1.292-7.461 2.776-2.676 1.741-4.723 4.03-5.945 7.018-.8 1.956-1.03 4.007-.917 6.105.1 1.841.459 3.627 1.231 5.307 1.1 2.393 2.769 4.3 4.941 5.772 2.398 1.624 5.039 2.61 7.887 3.042 3.259.494 6.492.314 9.684-.496 1.793-.456 3.501-1.146 5.04-2.198 1.379-.942 2.546-2.087 3.305-3.607.405-.816.62-1.817.548-2.575h-15.15v-6.413H46.39c.038.264.088.536.114.81.345 3.483.025 6.878-1.436 10.096-1.523 3.35-3.943 5.876-7.124 7.678-2.387 1.352-4.94 2.235-7.626 2.741-2.47.466-4.96.642-7.466.56-4.008-.132-7.843-.992-11.431-2.843-4.22-2.176-7.438-5.35-9.498-9.67a18.467 18.467 0 01-1.626-5.509c-.13-.956-.173-1.923-.258-2.885-.004-.044-.026-.088-.038-.132v-1.292zm100 1.677c-.03.285-.062.567-.088.85-.37 4.29-1.936 8.093-4.64 11.412-3.272 4.011-7.514 6.46-12.487 7.682-2.687.66-5.422.822-8.18.684-5.531-.278-10.477-2.095-14.703-5.727-3.718-3.193-6.061-7.22-6.9-12.08-.722-4.188-.355-8.273 1.323-12.204 1.877-4.4 4.944-7.728 9.063-10.086A24.409 24.409 0 0172.96.198c3.91-.426 7.766-.18 11.535 1.012 3.487 1.103 6.554 2.92 9.177 5.496 3.079 3.024 5.047 6.653 5.92 10.88.195.942.247 1.914.366 2.871.01.076.028.152.042.228v2.11-.004zM76.32 6.33c-.617.034-1.237.056-1.852.104-2.981.24-5.744 1.163-8.292 2.725-2.858 1.752-4.91 4.193-6.046 7.372-.949 2.662-1.082 5.401-.59 8.17.519 2.918 1.836 5.433 3.94 7.499 2.092 2.053 4.585 3.439 7.399 4.213 3.13.86 6.305.935 9.483.324 3.595-.694 6.719-2.332 9.193-5.063 3.623-4 4.598-8.708 3.303-13.883-.931-3.72-3.223-6.513-6.393-8.566-3.078-1.996-6.49-2.883-10.142-2.895h-.002zM2.8 61.82V50.914h.266c1.605 0 3.208-.006 4.813 0 1.402.006 2.709.334 3.813 1.25 1.183.98 1.78 2.274 1.859 3.793.107 2.068-.54 3.807-2.324 4.99-.941.623-2.006.871-3.12.881-1.716.014-3.43.004-5.146.004-.047 0-.093-.008-.16-.012zm1.694-9.326v7.71c.195 0 .376.002.558 0 1.19-.018 2.388.034 3.57-.072 1.415-.127 2.44-.885 2.935-2.269.206-.578.252-1.18.226-1.792-.075-1.765-1.156-3.149-2.892-3.38-1.44-.193-2.911-.139-4.395-.195l-.002-.002zm32.74 5.493H33.26V56.33c.081-.004.15-.012.22-.012h5.243c.116 0 .24-.032.259.154.16 1.628-.211 3.068-1.494 4.165-.78.668-1.71 1.036-2.709 1.21-1.615.282-3.193.2-4.705-.51-3.549-1.668-3.94-6.053-1.805-8.388 1.035-1.132 2.316-1.8 3.817-2.03 1.752-.267 3.418.006 4.95.932.363.22.68.512 1.048.792l-1.13 1.252a5.92 5.92 0 00-1.796-1.05c-1.717-.628-3.364-.504-4.871.57-2.1 1.496-1.875 4.213-.598 5.533.713.736 1.59 1.153 2.588 1.313 1.235.198 2.437.086 3.57-.49.455-.231.849-.545 1.097-1 .123-.223.179-.483.286-.783l.004-.002zm49.851-4.527c.395 2.771.274 5.557.292 8.356h-1.663v-10.9c.513 0 1.02-.003 1.526.007.063 0 .135.073.184.13 2.242 2.493 4.485 4.988 6.725 7.482l.947 1.046c-.308-2.912-.236-5.771-.246-8.646h1.676v10.897c-.528 0-1.042.004-1.559-.006-.065 0-.14-.066-.19-.12-2.483-2.695-4.962-5.39-7.442-8.088-.054-.058-.111-.114-.167-.17l-.083.012zM43.09 57.045v3.151h6.499v1.622H41.39V50.934h8.2v1.606h-6.498v2.877h5.652v1.628h-5.656.002zm8.606 2.899l1.168-1.473c.298.31.566.616.862.89 1.478 1.371 3.785 1.335 5.015.673.417-.224.768-.51.856-1.021.067-.4-.052-.724-.358-.982-.435-.368-.971-.502-1.505-.616-.83-.178-1.669-.31-2.499-.484a4.886 4.886 0 01-1.644-.672c-1.662-1.06-1.748-3.349-.169-4.53.838-.629 1.802-.889 2.826-.948 1.234-.072 2.427.07 3.523.693.53.302.993.686 1.345 1.216l-1.12 1.188c-.26-.25-.485-.512-.753-.714-1.352-1.016-2.82-1.156-4.355-.488-.612.266-.848.718-.789 1.288.044.418.286.7.626.91.538.334 1.146.451 1.754.575.9.184 1.805.356 2.695.586.61.158 1.177.446 1.622.916.693.73.725 1.606.465 2.51-.316 1.095-1.114 1.735-2.127 2.133-1.037.408-2.121.458-3.213.366-1.393-.116-2.644-.584-3.675-1.568-.166-.16-.357-.294-.544-.448h-.006zm20.363 1.89l.623-1.396c1.392-3.103 2.785-6.206 4.175-9.31.065-.148.137-.22.314-.215.492.014.985.008 1.475.002.135 0 .213.034.272.168 1.573 3.537 3.15 7.072 4.725 10.61.016.035.028.071.054.143-.598 0-1.174.004-1.748-.008-.056 0-.13-.098-.16-.168a148.77 148.77 0 01-1-2.223c-.065-.152-.143-.212-.314-.212-1.753.008-3.509.008-5.263 0-.182 0-.262.07-.33.226-.323.735-.663 1.465-.984 2.203-.062.14-.133.188-.282.186-.507-.008-1.013-.004-1.553-.004l-.004-.002zm3.688-4.255h4.182l-2.09-4.789a3989.5 3989.5 0 00-2.092 4.789zm-49.665 4.255c-.592 0-1.162.006-1.73-.008-.061 0-.145-.106-.178-.182-.34-.738-.676-1.478-1-2.224-.065-.147-.14-.195-.3-.195a776.75 776.75 0 01-5.288 0c-.159 0-.234.048-.298.195-.322.738-.663 1.466-.985 2.204-.071.164-.16.22-.338.214-.49-.014-.98-.004-1.51-.004.2-.452.384-.872.573-1.29 1.406-3.133 2.814-6.264 4.214-9.398.076-.17.157-.242.35-.233.485.016.97.01 1.454.002.139-.002.208.041.268.173 1.567 3.524 3.138 7.045 4.707 10.566.021.048.035.102.063.182l-.002-.002zm-3.753-4.249c-.713-1.636-1.412-3.237-2.094-4.797l-2.097 4.797h4.191zm45.843 4.241h-1.686v-9.272h-3.704v-1.616h9.188v1.606h-3.798v9.284-.002z"/></g><defs><clipPath id="clip0_204_2871"><path fill="#fff" d="M0 0h100v62H0z"/></clipPath></defs></svg>