<svg width="126" height="21" fill="none" xmlns="http://www.w3.org/2000/svg"><path d="M.07 4.907h1.535v4.016c.48-.864 1.328-1.328 2.544-1.328 2.368 0 3.504 2.048 3.504 4.432 0 2.384-1.136 4.432-3.504 4.432-1.28 0-2.16-.528-2.624-1.408l-.048 1.216H.07V4.907zm1.391 7.12c0 1.552.688 3.008 2.288 3.008 1.632 0 2.304-1.424 2.304-3.008 0-1.632-.672-3.072-2.304-3.072-1.6 0-2.288 1.472-2.288 3.072zm6.819-4.24h1.63l2.432 6.752 2.336-6.752h1.632l-3.408 9.472c-.336.96-.992 1.408-2.032 1.408H9.767V17.34h.912c.448 0 .704-.176.864-.608l.288-.72h-.48L8.28 7.787z" fill="#161616"/><path d="M20.719 4.662h2.938v1.539h.044c.41-.586.9-1.04 1.47-1.363.584-.322 1.25-.483 1.995-.483.716 0 1.367.139 1.951.417.6.279 1.053.77 1.36 1.473.336-.499.79-.938 1.36-1.319.584-.38 1.271-.571 2.06-.571.6 0 1.156.073 1.668.22.511.146.95.38 1.315.703.366.322.65.747.855 1.274.205.513.307 1.136.307 1.868v7.604h-3.114v-6.44c0-.38-.014-.739-.043-1.076a2.29 2.29 0 00-.241-.879 1.446 1.446 0 00-.593-.593c-.248-.147-.592-.22-1.03-.22-.439 0-.797.088-1.075.264a1.82 1.82 0 00-.636.659 2.86 2.86 0 00-.307.923 8.006 8.006 0 00-.065 1.033v6.329h-3.114V9.65c0-.337-.008-.667-.022-.99a2.661 2.661 0 00-.198-.922 1.27 1.27 0 00-.548-.66c-.248-.175-.621-.263-1.118-.263a2.23 2.23 0 00-.592.11 1.826 1.826 0 00-.702.373c-.22.176-.41.44-.57.792-.16.336-.241.783-.241 1.34v6.593h-3.114V4.662zm21.451 5.692c0 .454.044.901.132 1.34.088.425.234.814.439 1.165.219.337.504.608.855.813.35.205.79.308 1.316.308s.964-.103 1.315-.308c.366-.205.65-.476.855-.813.22-.351.373-.74.46-1.164a6.835 6.835 0 000-2.681 3.294 3.294 0 00-.46-1.165 2.287 2.287 0 00-.855-.813c-.35-.22-.79-.33-1.316-.33s-.964.11-1.315.33a2.521 2.521 0 00-.855.813 3.567 3.567 0 00-.439 1.165 6.803 6.803 0 00-.132 1.34zm-3.113 0c0-.908.139-1.729.416-2.461a5.211 5.211 0 011.184-1.89A5.106 5.106 0 0142.5 4.794c.717-.293 1.52-.44 2.412-.44.892 0 1.696.147 2.413.44a5.072 5.072 0 011.864 1.209 5.211 5.211 0 011.184 1.89c.278.732.416 1.553.416 2.461 0 .908-.138 1.729-.416 2.461a5.457 5.457 0 01-1.184 1.89 5.217 5.217 0 01-1.864 1.187c-.717.278-1.52.418-2.413.418-.891 0-1.695-.14-2.412-.418a5.255 5.255 0 01-1.842-1.187 5.455 5.455 0 01-1.184-1.89c-.277-.732-.416-1.553-.416-2.461zm15.072 1.978c0 .337.066.63.197.879.146.234.329.432.548.593.22.147.468.257.746.33a3.688 3.688 0 001.579.044 2.67 2.67 0 00.657-.242c.205-.117.373-.264.505-.44.131-.19.197-.424.197-.703 0-.468-.314-.82-.943-1.054-.614-.235-1.476-.47-2.587-.704-.453-.102-.9-.22-1.338-.351a5.15 5.15 0 01-1.14-.55 2.827 2.827 0 01-.811-.857c-.205-.351-.307-.776-.307-1.274 0-.733.138-1.334.416-1.802a3.153 3.153 0 011.14-1.1 4.618 4.618 0 011.58-.57 9.129 9.129 0 011.797-.176 8.83 8.83 0 011.777.175 4.72 4.72 0 011.556.594c.454.278.827.652 1.119 1.12.307.455.49 1.033.548 1.737h-2.96c-.044-.601-.27-1.004-.68-1.209-.41-.22-.892-.33-1.447-.33a4.04 4.04 0 00-.57.044 1.804 1.804 0 00-.57.132 1.12 1.12 0 00-.417.33c-.117.132-.176.315-.176.55 0 .278.103.505.307.68.205.176.468.323.79.44.336.102.716.198 1.14.286.424.088.855.183 1.294.285.453.103.892.227 1.316.374a4.14 4.14 0 011.162.593c.336.235.606.535.811.901.205.352.307.791.307 1.319 0 .747-.153 1.377-.46 1.89-.293.498-.68.9-1.163 1.208a4.651 4.651 0 01-1.666.638 8.954 8.954 0 01-1.886.198 9.373 9.373 0 01-1.93-.198 5.21 5.21 0 01-1.688-.66 3.958 3.958 0 01-1.206-1.208c-.307-.513-.475-1.15-.505-1.912h2.96zm15.988-3.67c-.205-1.304-.972-1.956-2.303-1.956-.497 0-.913.117-1.25.352-.336.22-.613.512-.833.879a3.83 3.83 0 00-.438 1.186 6.186 6.186 0 000 2.527c.087.425.226.814.416 1.165.205.337.475.616.812.835.336.22.745.33 1.228.33.745 0 1.315-.205 1.71-.615.41-.425.665-.99.768-1.692h3.004c-.205 1.509-.79 2.659-1.754 3.45-.965.79-2.2 1.187-3.706 1.187-.848 0-1.63-.14-2.347-.418a5.33 5.33 0 01-1.798-1.209 5.482 5.482 0 01-1.162-1.824 6.462 6.462 0 01-.417-2.351c0-.88.125-1.692.373-2.44a5.52 5.52 0 011.14-1.955 5.105 5.105 0 011.82-1.297c.717-.308 1.535-.461 2.456-.461.673 0 1.316.088 1.93.263a4.915 4.915 0 011.667.813c.497.352.899.799 1.206 1.341.307.527.482 1.157.526 1.89h-3.048zm6.539 1.692c0 .454.044.901.132 1.34.088.425.234.814.439 1.165.219.337.504.608.855.813.35.205.79.308 1.316.308s.964-.103 1.315-.308c.366-.205.65-.476.855-.813.22-.351.373-.74.46-1.164a6.835 6.835 0 000-2.681 3.294 3.294 0 00-.46-1.165 2.287 2.287 0 00-.855-.813c-.35-.22-.79-.33-1.316-.33s-.964.11-1.315.33a2.521 2.521 0 00-.855.813 3.567 3.567 0 00-.439 1.165 6.803 6.803 0 00-.132 1.34zm-3.113 0c0-.908.138-1.729.416-2.461a5.211 5.211 0 011.184-1.89 5.106 5.106 0 011.842-1.209c.717-.293 1.52-.44 2.412-.44.892 0 1.696.147 2.413.44a5.072 5.072 0 011.864 1.209 5.211 5.211 0 011.184 1.89c.277.732.416 1.553.416 2.461 0 .908-.139 1.729-.416 2.461a5.457 5.457 0 01-1.184 1.89 5.217 5.217 0 01-1.864 1.187c-.717.278-1.52.418-2.413.418-.891 0-1.695-.14-2.412-.418a5.255 5.255 0 01-1.842-1.187 5.455 5.455 0 01-1.184-1.89c-.278-.732-.416-1.553-.416-2.461zm25.619 5.67h-3.201l-2.018-7.626H93.9l-1.93 7.626h-3.223L85.15 4.662h3.29l2.082 7.714h.044l1.886-7.714h3.026l1.93 7.692h.044l2.083-7.692h3.202l-3.575 11.362zm11.435-6.901c-.146-.79-.409-1.391-.789-1.802-.366-.41-.929-.615-1.689-.615-.497 0-.914.088-1.25.264a2.387 2.387 0 00-.789.615c-.19.25-.329.513-.417.791a4.08 4.08 0 00-.132.747h5.066zm-5.066 1.978c.044 1.011.3 1.744.768 2.198.468.454 1.14.681 2.017.681.629 0 1.17-.154 1.623-.461.453-.323.731-.66.833-1.011h2.741c-.438 1.362-1.111 2.336-2.017 2.923-.906.586-2.003.879-3.289.879-.892 0-1.696-.14-2.412-.418a5.127 5.127 0 01-1.82-1.23 5.636 5.636 0 01-1.163-1.89c-.263-.733-.394-1.539-.394-2.418 0-.85.139-1.64.416-2.373a5.468 5.468 0 011.184-1.89 5.534 5.534 0 011.82-1.275c.717-.308 1.506-.461 2.369-.461.965 0 1.805.19 2.522.571a4.836 4.836 0 011.754 1.494c.468.63.804 1.348 1.009 2.154a8.07 8.07 0 01.219 2.527h-8.18zm17.241-.747c0-.483-.051-.945-.153-1.384a3.643 3.643 0 00-.483-1.165 2.39 2.39 0 00-.833-.791c-.322-.205-.716-.308-1.184-.308-.453 0-.848.103-1.184.308-.337.19-.614.454-.834.79a3.62 3.62 0 00-.482 1.166c-.102.44-.154.9-.154 1.384 0 .469.052.923.154 1.363.102.44.263.827.482 1.164a2.6 2.6 0 00.834.813c.336.19.731.286 1.184.286.468 0 .862-.095 1.184-.286.336-.205.614-.476.833-.813a3.64 3.64 0 00.483-1.165c.102-.439.153-.893.153-1.362zM114.461.333h3.114v5.714h.044a3.27 3.27 0 011.535-1.275 5.185 5.185 0 012.039-.417c.57 0 1.133.117 1.689.351a4.228 4.228 0 011.491 1.077c.453.484.819 1.106 1.096 1.868.278.747.417 1.64.417 2.681 0 1.04-.139 1.941-.417 2.703-.277.747-.643 1.363-1.096 1.846a4.228 4.228 0 01-1.491 1.077 4.313 4.313 0 01-1.689.351c-.833 0-1.579-.131-2.236-.395a2.845 2.845 0 01-1.492-1.34h-.043v1.45h-2.961V.333z" fill="#111"/></svg>