<svg width="115" height="115" fill="none" xmlns="http://www.w3.org/2000/svg"><g clip-path="url(#clip0_204_1385)"><path d="M0 15C0 6.716 6.716 0 15 0h70c16.569 0 30 13.431 30 30v55c0 16.569-13.431 30-30 30H15c-8.284 0-15-6.716-15-15V15z" fill="#E0ECF4"/><path d="M87.546 51.733h-38.91V85.8H9.727V42H0v73h9.727v-14.6h87.546V115H107V71.2c0-5.163-2.05-10.114-5.698-13.765a19.449 19.449 0 00-13.757-5.702zm-58.364 29.2c3.87 0 7.58-1.538 10.317-4.276a14.605 14.605 0 000-20.647 14.586 14.586 0 00-20.635 0 14.605 14.605 0 000 20.647 14.586 14.586 0 0010.318 4.276z" fill="#0394CD"/></g><defs><clipPath id="clip0_204_1385"><path d="M0 15C0 6.716 6.716 0 15 0h70c16.569 0 30 13.431 30 30v55c0 16.569-13.431 30-30 30H15c-8.284 0-15-6.716-15-15V15z" fill="#fff"/></clipPath></defs></svg>