<svg width="115" height="115" fill="none" xmlns="http://www.w3.org/2000/svg"><g clip-path="url(#clip0_204_1363)"><path d="M0 15C0 6.716 6.716 0 15 0h70c16.569 0 30 13.431 30 30v55c0 16.569-13.431 30-30 30H15c-8.284 0-15-6.716-15-15V15z" fill="#E1EBDB"/><path d="M41.947 20C12.413 20-11.5 43.744-11.5 73s23.915 53 53.447 53C71.531 126 95.5 102.256 95.5 73S71.532 20 41.947 20zm22.683 84.8L42 91.285 19.37 104.8l5.991-25.493L5.407 62.188l26.322-2.226L42 35.9l10.272 24.009 26.322 2.226-19.955 17.119L64.63 104.8z" fill="#70C043"/></g><defs><clipPath id="clip0_204_1363"><path d="M0 15C0 6.716 6.716 0 15 0h70c16.569 0 30 13.431 30 30v55c0 16.569-13.431 30-30 30H15c-8.284 0-15-6.716-15-15V15z" fill="#fff"/></clipPath></defs></svg>