<svg width="115" height="115" fill="none" xmlns="http://www.w3.org/2000/svg"><g clip-path="url(#clip0_204_1374)"><path d="M0 15C0 6.716 6.716 0 15 0h70c16.569 0 30 13.431 30 30v55c0 16.569-13.431 30-30 30H15c-8.284 0-15-6.716-15-15V15z" fill="#E1EBDB"/><path d="M100.31 32.563v8.291c0 22.938-12.215 43.003-30.4 54.168V121H-13v-11.054c0-14.703 29.46-22.11 44.219-22.11H32.6c26.255 0 48.365-22.109 48.365-46.982v-8.291m-49.746 0a22.11 22.11 0 110 44.219 22.11 22.11 0 010-44.219z" fill="#70C043"/></g><defs><clipPath id="clip0_204_1374"><path d="M0 15C0 6.716 6.716 0 15 0h70c16.569 0 30 13.431 30 30v55c0 16.569-13.431 30-30 30H15c-8.284 0-15-6.716-15-15V15z" fill="#fff"/></clipPath></defs></svg>