<svg width="115" height="115" fill="none" xmlns="http://www.w3.org/2000/svg"><g clip-path="url(#clip0_204_1369)"><path d="M0 15C0 6.716 6.716 0 15 0h70c16.569 0 30 13.431 30 30v55c0 16.569-13.431 30-30 30H15c-8.284 0-15-6.716-15-15V15z" fill="#E0ECF4"/><path fill-rule="evenodd" clip-rule="evenodd" d="M-99.802-8l87.315 97-27.139 37.854h-50.737c-7.552 0-16.519-8.675-20.059-13.012l12.98-14.195 3.54 11.829h54.276V94.915h-23.598l14.159-18.927h-28.319l14.16-18.927h-30.679l14.16-18.927h-28.319l12.98-17.744h-22.42l10.62-16.56h-20.059c-3.147 3.942-7.08 10.646-5.9 15.377 1.18 4.732 4.72 3.55 5.9 2.366 1.18-1.183 2.36-5.126 2.36-5.914l7.079 10.646-10.619 11.83L-147 19.206-135.201-8h35.399zM24.09 51.147h-5.9l-4.72 10.646-49.557-50.866-18.879 23.659h28.319l-14.16 16.56h27.14l-8.26 14.196H-.689l-8.26 15.378h27.14v21.292c0 5.678-9.44 13.407-14.16 16.561l-7.08-8.28 3.54-3.549 3.54 3.549 7.08-7.098-7.08-9.463-16.519 16.561 16.52 17.744 14.159-10.646-7.08 16.561 12.98 11.829 12.979-11.829-7.08-16.561 14.16 10.646 16.518-17.744L44.15 93.732l-7.08 9.463 7.08 7.098 3.54-3.549 3.54 3.549-7.08 8.28c-4.72-3.154-14.16-10.883-14.16-16.561V80.72h27.14l-8.26-15.378h21.239l-8.26-14.195h27.139l-14.16-16.561h28.319l-18.879-23.66-49.557 50.867-4.72-10.646h-5.9z" fill="#0394CD"/></g><defs><clipPath id="clip0_204_1369"><path d="M0 15C0 6.716 6.716 0 15 0h70c16.569 0 30 13.431 30 30v55c0 16.569-13.431 30-30 30H15c-8.284 0-15-6.716-15-15V15z" fill="#fff"/></clipPath></defs></svg>