<svg width="115" height="115" fill="none" xmlns="http://www.w3.org/2000/svg"><g clip-path="url(#clip0_204_1390)"><path d="M0 15C0 6.716 6.716 0 15 0h70c16.569 0 30 13.431 30 30v55c0 16.569-13.431 30-30 30H15c-8.284 0-15-6.716-15-15V15z" fill="#E1EBDB"/><path d="M33.489 95.916h12.14V60.629h-12.14v35.287zm6.07-47.427c1.72 0 3.162-.583 4.328-1.748 1.165-1.166 1.746-2.606 1.742-4.322-.004-1.716-.587-3.156-1.748-4.322-1.162-1.165-2.602-1.748-4.322-1.748-1.72 0-3.16.583-4.322 1.748-1.161 1.166-1.744 2.606-1.748 4.322-.004 1.716.579 3.159 1.748 4.328 1.17 1.17 2.61 1.75 4.322 1.742zM-9 115.257V42.419L39.559 6l48.559 36.42v72.837H-9z" fill="#70C043"/></g><defs><clipPath id="clip0_204_1390"><path d="M0 15C0 6.716 6.716 0 15 0h70c16.569 0 30 13.431 30 30v55c0 16.569-13.431 30-30 30H15c-8.284 0-15-6.716-15-15V15z" fill="#fff"/></clipPath></defs></svg>