<svg width="115" height="115" fill="none" xmlns="http://www.w3.org/2000/svg"><g clip-path="url(#clip0_204_1380)"><path d="M0 15C0 6.716 6.716 0 15 0h70c16.569 0 30 13.431 30 30v55c0 16.569-13.431 30-30 30H15c-8.284 0-15-6.716-15-15V15z" fill="#E1EBDB"/><path d="M93.564 67.65a5.03 5.03 0 00-.306-.95L78.55 32.382a4.903 4.903 0 00-4.498-2.966H-4.39a4.903 4.903 0 00-4.508 2.972l-14.708 34.318a5.03 5.03 0 00-.306.95 4.902 4.902 0 00-.089.98v56.38a2.451 2.451 0 002.451 2.451h9.806a2.45 2.45 0 002.451-2.451v-7.354h88.246v7.354a2.451 2.451 0 002.452 2.451h9.805a2.45 2.45 0 002.451-2.451v-56.38c0-.331-.032-.662-.098-.986zM.514 98.052a9.805 9.805 0 110-19.61 9.805 9.805 0 010 19.61zm68.635 0a9.805 9.805 0 110-19.61 9.805 9.805 0 010 19.61zm-80.813-34.319l10.507-24.512H70.82l10.507 24.513h-92.99z" fill="#70C043"/></g><defs><clipPath id="clip0_204_1380"><path d="M0 15C0 6.716 6.716 0 15 0h70c16.569 0 30 13.431 30 30v55c0 16.569-13.431 30-30 30H15c-8.284 0-15-6.716-15-15V15z" fill="#fff"/></clipPath></defs></svg>