<?xml version="1.0" encoding="utf-8"?><svg viewBox="0 0 61 61" xmlns="http://www.w3.org/2000/svg" xmlns:xlink="http://www.w3.org/1999/xlink"><style>:root>svg{display:none}:root>svg:target{display:block}</style><svg fill="none" viewBox="0 0 17 17" id="icon-arrow-down" xmlns="http://www.w3.org/2000/svg"><path d="M9.573 0H7.427v12.879L1.524 6.976 0 8.5 8.5 17 17 8.5l-1.524-1.524-5.903 5.903V0z" fill="currentColor"/></svg><svg fill="none" viewBox="0 0 17 18" id="icon-arrow-next" xmlns="http://www.w3.org/2000/svg"><path d="M0 7.927v2.146h12.879l-5.903 5.903L8.5 17.5 17 9 8.5.5 6.976 2.024l5.903 5.903H0z" fill="currentColor"/></svg><svg fill="none" viewBox="0 0 17 18" id="icon-arrow-prev" xmlns="http://www.w3.org/2000/svg"><path d="M17 7.927v2.146H4.121l5.903 5.903L8.5 17.5 0 9 8.5.5l1.524 1.524-5.903 5.903H17z" fill="currentColor"/></svg><svg fill="none" viewBox="0 0 24 24" id="icon-calendar" xmlns="http://www.w3.org/2000/svg"><path d="M6 4V1.5h2V4h8V1.5h2V4h4v18H2V4h4zM4 6v3h16V6H4zm16 5H4v9h16v-9z" fill="#000"/></svg><svg fill="none" viewBox="0 0 20 20" id="icon-check" xmlns="http://www.w3.org/2000/svg"><path d="M16 6l-8.25 8L4 9.91" stroke="#fff" stroke-width="2" stroke-linecap="round" stroke-linejoin="round"/></svg><svg fill="none" viewBox="0 0 61 61" id="icon-close" xmlns="http://www.w3.org/2000/svg"><path fill-rule="evenodd" clip-rule="evenodd" d="M61 30.5C61 47.345 47.345 61 30.5 61S0 47.345 0 30.5 13.655 0 30.5 0 61 13.655 61 30.5zm-27.986.409l9.515-9.515-2.121-2.121-9.582 9.581-9.424-9.573-2.138 2.105 9.523 9.674-9.514 9.515 2.12 2.12 9.583-9.58 9.423 9.573 2.138-2.105-9.523-9.674z" fill="currentColor"/></svg><svg fill="none" viewBox="0 0 18 18" id="icon-close-default" xmlns="http://www.w3.org/2000/svg"><path d="M2.64 17.56L.4 15.32l6.2-6.2L.48 3 2.72.76l6.12 6.12 6.24-6.2 2.24 2.24-6.24 6.2 6.16 6.16L15 17.52l-6.16-6.16-6.2 6.2z" fill="currentColor"/></svg><svg fill="none" viewBox="0 0 29 16" id="icon-double-check" xmlns="http://www.w3.org/2000/svg"><path d="M1.5 9.624L6.033 14 19.5 1M11.5 11.436L14.136 14 27.5 1" stroke="#0394CD" stroke-width="2"/></svg><svg fill="none" viewBox="0 0 61 61" id="icon-filter" xmlns="http://www.w3.org/2000/svg"><path fill-rule="evenodd" clip-rule="evenodd" d="M30.5 61C47.345 61 61 47.345 61 30.5S47.345 0 30.5 0 0 13.655 0 30.5 13.655 61 30.5 61zm-7.625-44a6.503 6.503 0 016.295 4.875h16.455v3.25H29.17A6.5 6.5 0 1122.875 17zm0 3.25a3.25 3.25 0 110 6.5 3.25 3.25 0 010-6.5zM18 34.875h-1.625v3.25H32.83a6.5 6.5 0 100-3.25H18zM35.875 36.5a3.25 3.25 0 106.5 0 3.25 3.25 0 00-6.5 0z" fill="currentColor"/></svg><svg fill="none" viewBox="0 0 24 24" id="icon-grid-2" xmlns="http://www.w3.org/2000/svg"><path d="M0 0h24v10.667H0V0zm0 13.333h24V24H0V13.333z" fill="currentColor"/></svg><svg fill="none" viewBox="0 0 24 24" id="icon-grid-4" xmlns="http://www.w3.org/2000/svg"><path d="M0 0h10.667v10.667H0V0zm0 13.333h10.667V24H0V13.333zM13.333 0H24v10.667H13.333V0zm0 13.333H24V24H13.333V13.333z" fill="currentColor"/></svg><svg fill="none" viewBox="0 0 16 17" id="icon-inst" xmlns="http://www.w3.org/2000/svg"><path d="M13.169 16.023H2.831a2.602 2.602 0 01-2.596-2.596V3.089A2.602 2.602 0 012.831.493h10.338a2.602 2.602 0 012.596 2.596v10.338a2.594 2.594 0 01-2.596 2.596z" fill="currentColor"/><path d="M8.003 12.246a3.96 3.96 0 01-2.819-1.167A3.96 3.96 0 014.017 8.26a3.96 3.96 0 011.167-2.818 3.96 3.96 0 012.82-1.168 3.96 3.96 0 012.818 1.168A3.96 3.96 0 0111.99 8.26a3.96 3.96 0 01-1.167 2.82 3.972 3.972 0 01-2.819 1.166zm0-7.123A3.14 3.14 0 004.865 8.26a3.14 3.14 0 003.138 3.138 3.14 3.14 0 003.138-3.138 3.148 3.148 0 00-3.138-3.137zM12.766 4.143a.765.765 0 100-1.53.765.765 0 000 1.53z" fill="#000"/></svg><svg fill="none" viewBox="0 0 26 4" id="icon-minus-black" xmlns="http://www.w3.org/2000/svg"><path d="M0 2h26" stroke="#022D3A" stroke-width="3"/></svg><svg fill="none" viewBox="0 0 12 12" id="icon-plus" xmlns="http://www.w3.org/2000/svg"><path d="M5.16 11.841V.808h1.49V11.84H5.16zM.384 7.065V5.584h11.042v1.481H.384z" fill="currentColor"/></svg><svg fill="none" viewBox="0 0 26 26" id="icon-plus-black" xmlns="http://www.w3.org/2000/svg"><path d="M26 13H13v13M0 13h13V0" stroke="#022D3A" stroke-width="3"/></svg><svg fill="none" viewBox="0 0 24 25" id="icon-search" xmlns="http://www.w3.org/2000/svg"><path d="M15.48 17.684a9.6 9.6 0 111.692-1.692l6.42 6.396-1.704 1.704-6.396-6.408h-.012zM9.6 17.3a7.2 7.2 0 100-14.4 7.2 7.2 0 000 14.4z" fill="currentColor"/></svg><svg fill="none" viewBox="0 0 36 36" id="icon-sunny" xmlns="http://www.w3.org/2000/svg"><path d="M16.453 1.828h3.094v6.469h-3.094V1.828zm0 25.875h3.094v6.469h-3.094v-6.469zm7.314-17.658l4.575-4.574 2.187 2.187-4.574 4.574-2.188-2.187zM5.471 28.34l4.575-4.574 2.187 2.188-4.574 4.574-2.188-2.188zm22.232-11.888h6.469v3.094h-6.469v-3.094zm-25.875 0h6.469v3.094H1.828v-3.094zm21.94 9.502l2.187-2.188 4.574 4.575-2.187 2.187-4.574-4.574zM5.47 7.658l2.188-2.187 4.574 4.574-2.187 2.188L5.47 7.657zM18 25.172A7.171 7.171 0 1125.172 18 7.18 7.18 0 0118 25.172z" fill="currentColor"/></svg><svg fill="none" viewBox="0 0 20 17" id="icon-tg" xmlns="http://www.w3.org/2000/svg"><path fill-rule="evenodd" clip-rule="evenodd" d="M1.672 7.1C6.77 4.85 10.166 3.355 11.87 2.63 16.722.57 17.742.215 18.397.2c.146 0 .466.03.685.208.175.148.218.34.248.488.029.148.058.46.029.696-.263 2.814-1.399 9.64-1.982 12.78-.247 1.332-.728 1.777-1.194 1.821-1.02.089-1.792-.681-2.768-1.333-1.545-1.021-2.404-1.658-3.905-2.665-1.734-1.155-.612-1.792.379-2.828.262-.267 4.735-4.413 4.822-4.784.015-.044.015-.222-.087-.31-.102-.09-.248-.06-.364-.03-.16.03-2.608 1.688-7.372 4.96-.7.49-1.326.726-1.894.711-.627-.014-1.822-.355-2.725-.651C1.176 8.907.302 8.715.375 8.093c.044-.326.48-.652 1.297-.992z" fill="currentColor"/></svg><svg fill="none" viewBox="0 0 16 19" id="icon-tt" xmlns="http://www.w3.org/2000/svg"><path d="M11.776.89L11.34.2H8.694v6.208l-.01 6.063c.005.045.01.094.01.14a2.757 2.757 0 11-2.758-2.757c.315 0 .622.058.906.157V6.984a5.421 5.421 0 00-.906-.076 5.717 5.717 0 00-5.7 5.707 5.71 5.71 0 005.704 5.703 5.71 5.71 0 005.705-5.703V5.403c1.14 1.14 2.614 2.252 4.245 2.608V4.917c-1.77-.784-3.533-3.1-4.114-4.028z" fill="currentColor"/></svg><svg fill="none" viewBox="0 0 20 19" id="icon-whapp" xmlns="http://www.w3.org/2000/svg"><path d="M18.442 5.416a8.554 8.554 0 00-1.96-2.718A9.253 9.253 0 0013.586.871a9.522 9.522 0 00-3.534-.668 9.522 9.522 0 00-3.534.668 9.122 9.122 0 00-2.896 1.827c-.84.787-1.5 1.7-1.96 2.718a8.097 8.097 0 00-.72 3.341c0 2.027.756 3.973 2.145 5.517l-.743 4.047 3.95-1.76a9.454 9.454 0 003.75.757 9.522 9.522 0 003.535-.668 9.125 9.125 0 002.896-1.826c.839-.788 1.5-1.7 1.96-2.718a8.097 8.097 0 00.72-3.342 8.006 8.006 0 00-.713-3.348z" fill="currentColor"/><path d="M13.75 10.465a8.793 8.793 0 00-.869-.386c-.126-.045-.423-.178-.527-.097-.327.268-.676 1.025-1.047 1.166-.92-.178-1.775-.81-2.443-1.455-.297-.283-.847-1.084-.965-1.3-.023-.223.378-.52.467-.69.46-.52.112-.847.052-1.062-.104-.223-.282-.624-.438-.95-.133-.216-.163-.535-.4-.654-1.01-.52-1.59.52-1.827 1.062-1.433 3.453 7.18 10.024 8.932 5.495.09-.394.052-.542-.081-.72-.268-.186-.58-.268-.854-.41z" fill="#000"/></svg></svg>